<?xml version="1.0" encoding="utf-8"?>
<svg width="24px" height="24px" viewBox="0 0 24 24" version="1.1" xmlns:xlink="http://www.w3.org/1999/xlink" xmlns="http://www.w3.org/2000/svg">
  <g id="vuesaxbrokenstatus-up" fill-opacity="1">
    <path d="M1384 -712L1384 -712L1384 -688L1360 -688L1360 -712L1384 -712Z" id="vuesaxbrokenstatus-up" fill="none" stroke="none" />
    <g id="vuesaxbrokenstatus-up">
      <g id="status-up">
        <path d="M6.88086 18.1501L6.88086 16.0801" id="Vector" fill="none" fill-rule="evenodd" stroke="#292D32" stroke-width="1.5" stroke-linecap="round" />
        <path d="M12 18.15L12 14.01" id="Vector" fill="none" fill-rule="evenodd" stroke="#292D32" stroke-width="1.5" stroke-linecap="round" />
        <path d="M17.1191 18.1499L17.1191 11.9299" id="Vector" fill="none" fill-rule="evenodd" stroke="#292D32" stroke-width="1.5" stroke-linecap="round" />
        <path d="M17.1209 5.8501L16.6609 6.3901C14.1109 9.3701 10.6909 11.4801 6.88086 12.4301" id="Vector" fill="none" stroke="#292D32" stroke-width="1.5" stroke-linecap="round" />
        <path d="M14.1895 5.8501L17.1195 5.8501L17.1195 8.7701" id="Vector" fill="none" stroke="#292D32" stroke-width="1.5" stroke-linecap="round" stroke-linejoin="round" />
        <path d="M2 12.97L2 15C2 20 4 22 9 22L15 22C20 22 22 20 22 15L22 9C22 4 20 2 15 2L9 2C4 2 2 4 2 9" id="Vector" fill="none" stroke="#292D32" stroke-width="1.5" stroke-linecap="round" stroke-linejoin="round" />
        <path d="M24 0L24 24L0 24L0 0L24 0Z" id="Vector" fill="none" fill-rule="evenodd" stroke="none" />
      </g>
    </g>
  </g>
</svg>