<?xml version="1.0" encoding="utf-8"?>
<svg width="24px" height="24px" viewBox="0 0 24 24" version="1.1" xmlns:xlink="http://www.w3.org/1999/xlink" xmlns="http://www.w3.org/2000/svg">
  <g id="vuesaxbrokencoin" fill-opacity="1">
    <path d="M1384 -712L1384 -712L1384 -688L1360 -688L1360 -712L1384 -712Z" id="vuesaxbrokencoin" fill="none" stroke="none" />
    <g id="vuesaxbrokencoin">
      <g id="coin">
        <path d="M12 21.9999C15.59 21.9999 18.5 19.4699 18.5 16.3499L18.5 12.6499C18.5 15.7699 15.59 17.9999 12 17.9999C8.41 17.9999 5.5 15.7699 5.5 12.6499L5.5 16.3499C5.5 18.0599 6.37 19.5899 7.75 20.6199" id="Vector" fill="none" stroke="#292D32" stroke-width="1.5" stroke-linecap="round" stroke-linejoin="round" />
        <path d="M17.81 10.12C16.74 11.88 14.54 13 12 13C9.46 13 7.26 11.88 6.19 10.12C5.75 9.4 5.5 8.56 5.5 7.65C5.5 6.09 6.22999 4.68 7.39999 3.66C8.57999 2.63 10.2 2 12 2C13.8 2 15.42 2.63 16.6 3.65C17.77 4.68 18.5 6.09 18.5 7.65C18.5 8.56 18.25 9.4 17.81 10.12Z" id="Vector" fill="none" stroke="#292D32" stroke-width="1.5" stroke-linecap="round" stroke-linejoin="round" />
        <path d="M18.5 12.65C18.5 15.77 15.59 18 12 18C8.41 18 5.5 15.77 5.5 12.65L5.5 7.65C5.5 4.53 8.41 2 12 2C13.8 2 15.42 2.63 16.6 3.65C17.77 4.68 18.5 6.09 18.5 7.65L18.5 12.65Z" id="Vector" fill="none" stroke="#292D32" stroke-width="1.5" stroke-linecap="round" stroke-linejoin="round" />
        <path d="M24 0L24 24L0 24L0 0L24 0Z" id="Vector" fill="none" fill-rule="evenodd" stroke="none" />
      </g>
    </g>
  </g>
</svg>