<?xml version="1.0" encoding="utf-8"?>
<svg width="24px" height="24px" viewBox="0 0 24 24" version="1.1" xmlns:xlink="http://www.w3.org/1999/xlink" xmlns="http://www.w3.org/2000/svg">
  <g id="vuesaxbrokenbrush" fill-opacity="1">
    <path d="M1384 -712L1384 -712L1384 -688L1360 -688L1360 -712L1384 -712Z" id="vuesaxbrokenbrush" fill="none" stroke="none" />
    <g id="vuesaxbrokenbrush">
      <g id="brush">
        <path d="M9.5 18L4.5 18C3.95 18 3.45 17.78 3.09 17.41C2.72 17.05 2.5 16.55 2.5 16C2.5 14.97 3.3 14.11 4.31 14.01C4.37 14 4.43 14 4.5 14L19.5 14C19.57 14 19.63 14 19.69 14.01C20.17 14.05 20.59 14.26 20.91 14.59C21.32 14.99 21.54 15.56 21.49 16.18C21.4 17.23 20.45 18 19.39 18L14.5 18L14.5 19.5C14.5 20.88 13.38 22 12 22C10.62 22 9.5 20.88 9.5 19.5L9.5 18Z" id="Vector" fill="none" stroke="#292D32" stroke-width="1.5" stroke-linecap="round" stroke-linejoin="round" />
        <path d="M19.8002 12L19.6902 14.01C19.6302 14 19.5702 14 19.5002 14L4.50016 14C4.43016 14 4.37016 14 4.31016 14.01L3.83016 5.3C3.65016 3.53 5.04016 2 6.81016 2L17.1902 2C18.9602 2 20.3502 3.53 20.1702 5.3L20.0202 8.01" id="Vector" fill="none" stroke="#292D32" stroke-width="1.5" stroke-linecap="round" stroke-linejoin="round" />
        <path d="M7.99023 2L7.99023 7" id="Vector" fill="none" fill-rule="evenodd" stroke="#292D32" stroke-width="1.5" stroke-linecap="round" stroke-linejoin="round" />
        <path d="M12 2L12 4" id="Vector" fill="none" fill-rule="evenodd" stroke="#292D32" stroke-width="1.5" stroke-linecap="round" stroke-linejoin="round" />
        <path d="M24 0L24 24L0 24L0 0L24 0Z" id="Vector" fill="none" fill-rule="evenodd" stroke="none" />
      </g>
    </g>
  </g>
</svg>