<?xml version="1.0" encoding="utf-8"?>
<svg width="29.841064px" height="48px" viewBox="0 0 29.841064 48" version="1.1" xmlns:xlink="http://www.w3.org/1999/xlink" xmlns="http://www.w3.org/2000/svg">
  <g id="Group">
    <g id="vuesaxbrokenpolyswarm-(nct)" fill-opacity="1" transform="matrix(0.9998477 -0.017452406 0.017452406 0.9998477 -3.8444996E-06 18.670837)">
      <path d="M29.3292 -0.511942L29.3292 -0.511942L29.8411 28.8172L0.511942 29.3292L0 0L29.3292 -0.511942Z" id="vuesaxbrokenpolyswarm-(nct)" fill="none" stroke="none" />
      <g id="vuesaxbrokenpolyswarm-(nct)">
        <g id="polyswarm-(nct)">
          <path d="M29.3336 0L29.3336 29.3336L0 29.3336L0 0L29.3336 0Z" id="BG-162" fill="none" fill-rule="evenodd" stroke="none" />
          <path d="M24.1024 18.2112C22.538 19.9712 20.2524 21.0834 17.7224 21.0834L4.27782 21.0834" id="Vector" fill="none" stroke="#51C8B9" stroke-width="1.5" stroke-linecap="round" stroke-linejoin="round" />
          <path d="M11.6112 3.97226L17.7224 3.97226C22.428 3.97226 26.278 7.8223 26.278 12.5279" id="Vector" fill="none" stroke="#51C8B9" stroke-width="1.5" stroke-linecap="round" stroke-linejoin="round" />
          <path d="M3.87439 8.25008L16.879 8.25008C19.3601 8.25008 21.389 10.279 21.389 12.7601C21.389 15.2413 19.3601 17.2702 16.879 17.2702L9.7778 17.2702" id="Vector" fill="none" stroke="#51C8B9" stroke-width="1.5" stroke-linecap="round" stroke-linejoin="round" />
          <path d="M10.389 13.139L6.72229 13.139" id="Vector" fill="none" fill-rule="evenodd" stroke="#51C8B9" stroke-width="1.5" stroke-linecap="round" stroke-linejoin="round" />
          <path d="M7.94452 25.3614L3.05559 25.3614" id="Vector" fill="none" fill-rule="evenodd" stroke="#51C8B9" stroke-width="1.5" stroke-linecap="round" stroke-linejoin="round" />
          <path d="M29.3336 0L29.3336 29.3336L0 29.3336L0 0L29.3336 0Z" id="Vector" fill="none" fill-rule="evenodd" stroke="none" />
        </g>
      </g>
    </g>
    <g id="vuesaxbrokenpolyswarm-(nct)-Copy" fill-opacity="1" transform="matrix(0.9998477 -0.017452406 -0.017452406 -0.9998477 0.5119589 29.841095)">
      <path d="M29.3292 29.3292L29.3292 29.3292L28.8172 2.98023e-08L-0.511943 0.511942L-1.78814e-07 29.8411L29.3292 29.3292Z" transform="matrix(0.9998477 -0.017452406 -0.017452406 -0.9998477 7.772446E-05 29.850025)" id="vuesaxbrokenpolyswarm-(nct)-Copy" fill="none" stroke="none" />
      <g id="vuesaxbrokenpolyswarm-(nct)">
        <g id="polyswarm-(nct)">
          <path d="M29.3336 0L29.3336 29.3336L0 29.3336L0 0L29.3336 0Z" id="BG-162" fill="none" fill-rule="evenodd" stroke="none" />
          <path d="M24.1024 18.2112C22.538 19.9712 20.2524 21.0834 17.7224 21.0834L4.27782 21.0834" id="Vector" fill="none" stroke="#51C8B9" stroke-width="1.5" stroke-linecap="round" stroke-linejoin="round" />
          <path d="M11.6112 3.97226L17.7224 3.97226C22.428 3.97226 26.278 7.8223 26.278 12.5279" id="Vector" fill="none" stroke="#51C8B9" stroke-width="1.5" stroke-linecap="round" stroke-linejoin="round" />
          <path d="M3.87439 8.25008L16.879 8.25008C19.3601 8.25008 21.389 10.279 21.389 12.7601C21.389 15.2413 19.3601 17.2702 16.879 17.2702L9.7778 17.2702" id="Vector" fill="none" stroke="#51C8B9" stroke-width="1.5" stroke-linecap="round" stroke-linejoin="round" />
          <path d="M10.389 13.139L6.72229 13.139" id="Vector" fill="none" fill-rule="evenodd" stroke="#51C8B9" stroke-width="1.5" stroke-linecap="round" stroke-linejoin="round" />
          <path d="M7.94452 25.3614L3.05559 25.3614" id="Vector" fill="none" fill-rule="evenodd" stroke="#51C8B9" stroke-width="1.5" stroke-linecap="round" stroke-linejoin="round" />
          <path d="M29.3336 0L29.3336 29.3336L0 29.3336L0 0L29.3336 0Z" id="Vector" fill="none" fill-rule="evenodd" stroke="none" />
        </g>
      </g>
    </g>
  </g>
</svg>