<?xml version="1.0" encoding="utf-8"?>
<svg width="123px" height="123px" viewBox="0 0 123 123" version="1.1" xmlns:xlink="http://www.w3.org/1999/xlink" xmlns="http://www.w3.org/2000/svg">
  <g id="Group-2">
    <path d="M12 61.5C12 34.1619 34.1619 12 61.5 12C88.8381 12 111 34.1619 111 61.5C111 88.8381 88.8381 111 61.5 111C34.1619 111 12 88.8381 12 61.5Z" id="Oval" fill="#FFFFFF" fill-rule="evenodd" stroke="none" />
    <path d="M61.5 0C27.5345 0 0 27.5345 0 61.5C0 95.4655 27.5345 123 61.5 123C95.4655 123 123 95.4655 123 61.5C123 27.5345 95.4655 0 61.5 0ZM55.8594 79.2969Q58.709 75.5184 59.2692 69.7329Q59.8894 75.6306 62.7031 79.2969Q66.3125 84 72.2812 84Q77.5938 84 80.9688 79.7812L81.4062 83.375L89.5625 83.375L89.5625 35.375L80.5 35.375L80.5 52.625Q77.2812 48.9375 72.3438 48.9375Q66.1875 48.9375 62.6406 53.625Q59.8407 57.3254 59.251 63.0317Q58.6725 57.2092 55.9375 53.5625Q52.4688 48.9375 46.2188 48.9375Q40.9375 48.9375 37.6562 52.875L37.3438 49.5625L28.9688 49.5625L28.9688 96.375L38 96.375L38 80.4375Q41.1562 84 46.2812 84Q52.3125 84 55.8594 79.2969ZM50.375 66.125Q50.375 61.4062 48.7031 58.8438Q47.0312 56.2812 43.8438 56.2812Q39.5938 56.2812 38 59.5312L38 73.375Q39.6562 76.7188 43.9062 76.7188Q50.375 76.7188 50.375 66.125ZM68.125 66.875Q68.125 71.625 69.7812 74.1562Q71.4375 76.6875 74.5938 76.6875Q78.7812 76.6875 80.5 73.1562L80.5 59.8125Q78.8125 56.2812 74.6562 56.2812Q68.125 56.2812 68.125 66.875Z" id="Oval-Subtract" fill="#51C8B9" fill-rule="evenodd" stroke="none" />
  </g>
</svg>