<?xml version="1.0" encoding="utf-8"?>
<svg width="41.311768px" height="43.919228px" viewBox="0 0 41.311768 43.919228" version="1.1" xmlns:xlink="http://www.w3.org/1999/xlink" xmlns="http://www.w3.org/2000/svg">
  <path d="M2846.65 458.088C2847.65 459.322 2848.95 460.281 2850.44 460.86C2852.29 461.58 2854.33 461.676 2856.24 461.134C2858.15 460.592 2859.83 459.442 2861.03 457.857C2862.19 456.322 2862.83 454.461 2862.87 452.541L2862.87 452.541L2862.87 425L2870.31 425L2870.31 452.541L2870.31 452.541C2870.27 456.08 2869.1 459.515 2866.96 462.341C2864.79 465.216 2861.74 467.304 2858.27 468.288C2854.8 469.272 2851.11 469.097 2847.75 467.791C2844.39 466.485 2841.55 464.118 2839.66 461.051C2837.76 457.983 2836.92 454.382 2837.26 450.794C2837.6 447.205 2839.1 443.826 2841.54 441.168C2843.97 438.51 2847.21 436.719 2850.75 436.067C2851.39 435.95 2852.02 435.871 2852.66 435.829C2851.67 434.595 2850.36 433.636 2848.87 433.056C2847.02 432.337 2844.98 432.241 2843.07 432.783C2841.16 433.325 2839.48 434.475 2838.28 436.06C2837.12 437.595 2836.48 439.456 2836.44 441.377L2836.44 441.377L2836.44 468.919L2829 468.919L2829 441.562L2829 441.562L2829 441.523L2829 441.377L2829 441.377C2829.04 437.837 2830.21 434.402 2832.35 431.576C2834.52 428.7 2837.57 426.612 2841.04 425.629C2844.51 424.645 2848.2 424.819 2851.56 426.126C2854.92 427.432 2857.76 429.798 2859.66 432.866C2861.55 435.933 2862.39 439.535 2862.05 443.123C2861.71 446.711 2860.21 450.091 2857.77 452.749C2855.34 455.407 2852.1 457.198 2848.56 457.85C2847.93 457.967 2847.29 458.046 2846.65 458.088ZM2844.78 450.654C2845.59 450.723 2846.41 450.685 2847.21 450.537C2849.17 450.177 2850.95 449.19 2852.29 447.726C2853.44 446.471 2854.21 444.924 2854.53 443.262C2853.72 443.194 2852.9 443.232 2852.1 443.38C2850.15 443.739 2848.36 444.726 2847.02 446.191C2845.87 447.446 2845.1 448.993 2844.78 450.654Z" id="Oval-Union-Union" fill="#292941" fill-rule="evenodd" stroke="none" />
</svg>