<?xml version="1.0" encoding="utf-8"?>
<svg width="33.00122px" height="33.0011px" viewBox="0 0 33.00122 33.0011" version="1.1" xmlns:xlink="http://www.w3.org/1999/xlink" xmlns="http://www.w3.org/2000/svg">
  <g id="Group-3">
    <path d="M19.5113 16.1553L19.5089 16.1586C19.3105 16.0563 19.0899 15.9992 18.8576 15.9992L1.57147 15.9992C0.703442 15.9992 0 16.795 0 17.7769C0 18.7589 0.703442 19.5546 1.57147 19.5546L18.3604 19.5546C19.6812 20.5457 21.2068 21.1479 22.7977 21.2962C24.738 21.4772 26.6804 20.9742 28.3579 19.8564C30.0355 18.7385 31.366 17.0606 32.1667 15.053C32.9675 13.0454 33.1992 10.8066 32.8301 8.64407C32.461 6.48158 31.5092 4.50131 30.1053 2.97524C28.7015 1.44921 26.9144 0.452192 24.9895 0.121153C23.0647 -0.209831 21.0964 0.141279 19.3551 1.12642C17.6137 2.11151 16.1846 3.68229 15.2641 5.62306L17.9968 7.28183C18.6146 5.97943 19.5736 4.92528 20.7422 4.26418C21.9108 3.60314 23.2317 3.36747 24.5234 3.58963C25.8151 3.81178 27.0144 4.48081 27.9565 5.50495C28.8986 6.52905 29.5374 7.85792 29.7851 9.30919C30.0328 10.7605 29.8773 12.2628 29.3399 13.6101C28.8025 14.9573 27.9097 16.0833 26.7839 16.8335C25.6581 17.5837 24.3546 17.9212 23.0525 17.7998C21.9701 17.6989 20.9328 17.2849 20.038 16.6033C19.8954 16.42 19.72 16.2701 19.5222 16.1655L19.5113 16.1553L19.5113 16.1553Z" id="Vector" fill="#292941" fill-rule="evenodd" stroke="none" />
    <path d="M18.8573 30.5537L17.9603 3.2778Q17.9565 3.16052 17.9414 3.04415Q17.9263 2.92778 17.9002 2.81338Q17.8741 2.69899 17.8371 2.58763Q17.8001 2.47626 17.7526 2.36895Q17.7052 2.26164 17.6476 2.15936Q17.5901 2.05709 17.5231 1.96079Q17.456 1.8645 17.38 1.77507Q17.3041 1.68563 17.2199 1.60389Q17.1357 1.52214 17.0441 1.44883Q16.9525 1.37552 16.8542 1.31131Q16.756 1.24711 16.6521 1.19261Q16.5482 1.13811 16.4395 1.09381Q16.3309 1.04951 16.2185 1.01582Q16.1061 0.982126 15.991 0.959351Q15.8758 0.936577 15.7591 0.924929Q15.6423 0.913281 15.525 0.912867L15.5242 0.912865Q15.4099 0.912461 15.2962 0.92352Q15.1825 0.934578 15.0704 0.956987Q14.9583 0.979397 14.8491 1.01293Q14.7398 1.04646 14.6345 1.09078Q14.5292 1.1351 14.4288 1.18976Q14.3284 1.24442 14.2341 1.30887Q14.1397 1.37332 14.0523 1.44691Q13.9648 1.5205 13.8852 1.60248Q13.8056 1.68447 13.7346 1.77402Q13.6636 1.86357 13.602 1.9598Q13.5403 2.05602 13.4886 2.15794Q13.4369 2.25986 13.3957 2.36645Q13.3545 2.47304 13.3242 2.58323Q13.2939 2.69341 13.2748 2.80608Q13.2557 2.91875 13.2479 3.03277Q13.2402 3.14679 13.244 3.26101L14.1409 30.5369Q14.1448 30.6542 14.1598 30.7705Q14.1749 30.8869 14.201 31.0013Q14.2272 31.1157 14.2642 31.227Q14.3011 31.3384 14.3486 31.4457Q14.3961 31.553 14.4536 31.6553Q14.5111 31.7576 14.5782 31.8539Q14.6452 31.9502 14.7212 32.0396Q14.7972 32.129 14.8814 32.2108Q14.9655 32.2925 15.0572 32.3659Q15.1488 32.4392 15.247 32.5034Q15.3452 32.5676 15.4491 32.6221Q15.5531 32.6766 15.6617 32.7209Q15.7704 32.7652 15.8828 32.7989Q15.9952 32.8325 16.1103 32.8553Q16.2254 32.8781 16.3422 32.8897Q16.4589 32.9014 16.5763 32.9018L16.577 32.9018Q16.6913 32.9022 16.805 32.8912Q16.9188 32.8801 17.0308 32.8577Q17.1429 32.8353 17.2522 32.8017Q17.3614 32.7682 17.4667 32.7239Q17.5721 32.6796 17.6724 32.6249Q17.7728 32.5702 17.8672 32.5058Q17.9615 32.4414 18.049 32.3678Q18.1364 32.2942 18.216 32.2122Q18.2956 32.1302 18.3666 32.0407Q18.4376 31.9511 18.4993 31.8549Q18.5609 31.7587 18.6126 31.6567Q18.6643 31.5548 18.7055 31.4482Q18.7467 31.3416 18.777 31.2315Q18.8074 31.1213 18.8265 31.0086Q18.8456 30.8959 18.8533 30.7819Q18.861 30.6679 18.8573 30.5537Z" id="Rectangle-Copy" fill="#292941" fill-rule="evenodd" stroke="none" />
  </g>
</svg>