<?xml version="1.0" encoding="utf-8"?>
<svg width="12px" height="12px" viewBox="0 0 12 12" version="1.1" xmlns:xlink="http://www.w3.org/1999/xlink" xmlns="http://www.w3.org/2000/svg">
  <g id="vuesaxbrokenuser-edit" fill-opacity="1">
    <path d="M2748 -1674L2748 -1674L2748 -1662L2736 -1662L2736 -1674L2748 -1674Z" id="vuesaxbrokenuser-edit" fill="none" stroke="none" />
    <g id="vuesaxbrokenuser-edit">
      <g id="user-edit">
        <path d="M7.51001 1.505C7.09001 1.185 6.57 1 6 1C4.62 1 3.5 2.12 3.5 3.5C3.5 4.88 4.62 6 6 6C7.38 6 8.5 4.88 8.5 3.5" id="Vector" fill="none" stroke="#292D32" stroke-width="1.5" stroke-linecap="round" stroke-linejoin="round" />
        <g id="Group" transform="translate(7.584961 7.583496)">
          <path d="M0.249561 2.05653C0.179561 2.12653 0.114567 2.25652 0.0995672 2.35152L0.00456595 3.0265C-0.0304341 3.2715 0.139571 3.44151 0.384571 3.40651L1.05956 3.31151C1.15456 3.29651 1.28957 3.23151 1.35457 3.16151L3.12456 1.39152C3.42956 1.08652 3.57456 0.731509 3.12456 0.281509C2.67956 -0.163491 2.32458 -0.0184863 2.01958 0.286514L0.249561 2.05653Z" id="Vector" fill="none" stroke="#292D32" stroke-width="1.5" stroke-linecap="round" stroke-linejoin="round" />
          <path d="M1.76465 0.541504C1.91465 1.0815 2.33463 1.50149 2.87463 1.65149" id="Vector" fill="none" stroke="#292D32" stroke-width="1.5" stroke-linecap="round" stroke-linejoin="round" />
        </g>
        <path d="M1.70508 11C1.70508 9.065 3.63009 7.5 6.00009 7.5C6.52009 7.5 7.02008 7.575 7.48508 7.715" id="Vector" fill="none" stroke="#292D32" stroke-width="1.5" stroke-linecap="round" stroke-linejoin="round" />
        <path d="M12 0L12 12L0 12L0 0L12 0Z" id="Vector" fill="none" fill-rule="evenodd" stroke="none" />
      </g>
    </g>
  </g>
</svg>