<?xml version="1.0" encoding="utf-8"?>
<svg width="24px" height="24px" viewBox="0 0 24 24" version="1.1" xmlns:xlink="http://www.w3.org/1999/xlink" xmlns="http://www.w3.org/2000/svg">
  <g id="vuesaxbrokenrepeate-music-Copy" fill-opacity="1">
    <path d="M24 0L24 0L24 24L0 24L0 0L24 0Z" id="vuesaxbrokenrepeate-music-Copy" fill="none" stroke="none" />
    <g id="vuesaxbrokenrepeate-music">
      <g id="repeate-music">
        <path d="M10.0005 21.0001L7.56055 18.66L15.5105 18.6801C19.0805 18.6801 22.0105 15.75 22.0105 12.16C22.0105 10.37 21.2806 8.74006 20.1006 7.56006" id="Vector" fill="none" stroke="#F0F1F8" stroke-width="1.5" stroke-linecap="round" stroke-linejoin="round" />
        <path d="M9 12L15 12" id="Vector" fill="none" stroke="#F0F1F8" stroke-width="1.5" stroke-linecap="round" stroke-linejoin="round" />
        <path d="M24 0L24 24L0 24L0 0L24 0Z" id="Vector" fill="none" fill-rule="evenodd" stroke="none" />
        <path d="M8.56055 4.97998C4.99055 4.97998 2.06055 7.91 2.06055 11.5C2.06055 13.29 2.79055 14.92 3.97055 16.1" id="Vector" fill="none" stroke="#F0F1F8" stroke-width="1.5" stroke-linecap="round" stroke-linejoin="round" />
        <path d="M14.0602 2.65991L16.5002 4.99994L12.9902 4.98993" id="Vector" fill="none" stroke="#F0F1F8" stroke-width="1.5" stroke-linecap="round" stroke-linejoin="round" />
      </g>
    </g>
  </g>
</svg>