<?xml version="1.0" encoding="utf-8"?>
<svg width="12px" height="12px" viewBox="0 0 12 12" version="1.1" xmlns:xlink="http://www.w3.org/1999/xlink" xmlns="http://www.w3.org/2000/svg">
  <g id="vuesaxbrokencandle-2" fill-opacity="1">
    <path d="M12 0L12 0L12 12L0 12L0 0L12 0Z" id="vuesaxbrokencandle-2" fill="none" stroke="none" />
    <g id="vuesaxbrokencandle-2">
      <g id="candle-2">
        <path d="M11 8.75L7.5 8.75" id="Vector" fill="none" fill-rule="evenodd" stroke="#292D32" stroke-width="1.5" stroke-linecap="round" stroke-linejoin="round" />
        <path d="M2.5 8.75L1 8.75" id="Vector" fill="none" fill-rule="evenodd" stroke="#292D32" stroke-width="1.5" stroke-linecap="round" stroke-linejoin="round" />
        <path d="M11 3.25L9.5 3.25" id="Vector" fill="none" fill-rule="evenodd" stroke="#292D32" stroke-width="1.5" stroke-linecap="round" stroke-linejoin="round" />
        <path d="M4.5 3.25L1 3.25" id="Vector" fill="none" fill-rule="evenodd" stroke="#292D32" stroke-width="1.5" stroke-linecap="round" stroke-linejoin="round" />
        <path d="M6.5 7.25C7.05 7.25 7.5 7.5 7.5 8.25L7.5 9.25C7.5 10 7.05 10.25 6.5 10.25L3.5 10.25C2.95 10.25 2.5 10 2.5 9.25L2.5 8.25C2.5 7.5 2.95 7.25 3.5 7.25L6.5 7.25Z" id="Vector" fill="none" stroke="#292D32" stroke-width="1.5" stroke-linecap="round" stroke-linejoin="round" />
        <path d="M8.5 1.75C9.05 1.75 9.5 2 9.5 2.75L9.5 3.75C9.5 4.5 9.05 4.75 8.5 4.75L5.5 4.75C4.95 4.75 4.5 4.5 4.5 3.75L4.5 2.75C4.5 2 4.95 1.75 5.5 1.75L6.51501 1.75" id="Vector" fill="none" stroke="#292D32" stroke-width="1.5" stroke-linecap="round" stroke-linejoin="round" />
        <path d="M12 0L12 12L0 12L0 0L12 0Z" id="Vector" fill="none" fill-rule="evenodd" stroke="none" />
      </g>
    </g>
  </g>
</svg>