<?xml version="1.0" encoding="utf-8"?>
<svg width="318.77124px" height="312.01187px" viewBox="0 0 318.77124 312.01187" version="1.1" xmlns:xlink="http://www.w3.org/1999/xlink" xmlns="http://www.w3.org/2000/svg">
  <g id="Group">
    <g id="freepik--background-simple--inject-57">
      <path d="M309.341 121.038C273.956 60.4311 177.972 82.0151 158.37 52.5395C148.329 37.4677 137.098 19.9494 120.806 10.8526C105.277 2.14058 87.2724 -0.915878 71.5763 0.231201C15.5218 4.3331 -8.24013 54.4852 2.52645 109.56C16.9012 183.023 82.0234 258.07 159.386 258.593C199.853 258.898 238.52 244.378 268.794 223.955L269.469 223.498C299.744 202.887 336.363 167.306 309.341 121.038L309.341 121.038Z" id="Shape" fill="#51C8B9" fill-rule="evenodd" stroke="none" />
      <path d="M309.341 121.038C273.956 60.4311 177.972 82.0151 158.37 52.5395C148.329 37.4677 137.098 19.9494 120.806 10.8526C105.277 2.14058 87.2724 -0.915878 71.5763 0.231201C15.5218 4.3331 -8.24013 54.4852 2.52645 109.56C16.9012 183.023 82.0234 258.07 159.386 258.593C199.853 258.898 238.52 244.378 268.794 223.955L269.469 223.498C299.744 202.887 336.363 167.306 309.341 121.038L309.341 121.038Z" id="Shape" fill="#FFFFFF" fill-opacity="0.7" fill-rule="evenodd" stroke="none" />
    </g>
    <g id="freepik--Shadow--inject-57" transform="translate(20.34253 273.15637)">
      <path d="M0 19.4277C0 8.6981 62.2519 0 139.044 0C215.835 0 278.087 8.6981 278.087 19.4277C278.087 30.1574 215.835 38.8555 139.044 38.8555C62.2519 38.8555 0 30.1574 0 19.4277Z" id="Oval" fill="#51C8B9" fill-rule="evenodd" stroke="none" />
      <path d="M0 19.4277C0 8.6981 62.2519 0 139.044 0C215.835 0 278.087 8.6981 278.087 19.4277C278.087 30.1574 215.835 38.8555 139.044 38.8555C62.2519 38.8555 0 30.1574 0 19.4277Z" id="Oval" fill="#FFFFFF" fill-opacity="0.5" fill-rule="evenodd" stroke="none" />
    </g>
    <g id="freepik--Window--inject-57" transform="translate(28.313965 50.042053)">
      <path d="M262.144 16.1172L262.144 146.841C262.144 155.739 254.933 162.954 246.034 162.958L16.1099 162.958C7.21148 162.954 -1.10779e-05 155.739 0 146.841L0 16.1172C0 15.7324 0 15.3912 0.0508198 14.9846C0.638053 6.54748 7.65239 0.00246483 16.1099 0L246.034 0C254.502 0.00353384 261.521 6.56508 262.093 15.0137C262.13 15.3622 262.144 15.7397 262.144 16.1172L262.144 16.1172Z" id="Shape" fill="#FFFFFF" fill-rule="evenodd" stroke="#263238" stroke-width="1.10311" stroke-linecap="round" stroke-linejoin="round" />
      <path d="M7.84094 21.025L255.124 21.025L255.124 141.781C255.124 150.12 248.363 156.881 240.023 156.881L22.949 156.881C14.6091 156.881 7.84824 150.12 7.84822 141.781L7.84822 21.025L7.84094 21.025Z" id="Shape" fill="#263238" fill-rule="evenodd" stroke="none" />
      <path d="M255.131 21.025L255.131 141.781C255.175 150.073 248.49 156.833 240.197 156.881L22.7747 156.881C14.4817 156.833 7.7967 150.074 7.84092 141.781L7.84092 21.025L255.131 21.025Z" id="Shape" fill="#FFFFFF" fill-opacity="0.2" fill-rule="evenodd" stroke="none" />
      <path d="M262.093 15.0137L0.0509062 15.0137C0.638134 6.57652 7.65247 0.0315045 16.11 0.0290397L246.034 0.0290397C254.492 0.0315211 261.506 6.57654 262.093 15.0137L262.093 15.0137Z" id="Shape" fill="#51C8B9" fill-rule="evenodd" stroke="#263238" stroke-width="1.10311" />
      <path d="M32.2488 7.49232C32.2488 9.06809 30.9714 10.3455 29.3957 10.3455C27.8199 10.3455 26.5425 9.06809 26.5425 7.49232C26.5425 5.91656 27.8199 4.63914 29.3957 4.63914C30.9714 4.63914 32.2488 5.91656 32.2488 7.49232L32.2488 7.49232Z" id="Shape" fill="#263238" fill-rule="evenodd" stroke="none" />
      <path d="M44.315 7.49232C44.315 9.06809 43.0376 10.3455 41.4618 10.3455C39.886 10.3455 38.6086 9.06809 38.6086 7.49232C38.6086 5.91656 39.886 4.63914 41.4618 4.63914C43.0376 4.63915 44.315 5.91656 44.315 7.49232L44.315 7.49232Z" id="Shape" fill="#263238" fill-rule="evenodd" stroke="none" />
      <path d="M50.6748 7.49232C50.6748 5.91656 51.9522 4.63914 53.528 4.63914C55.1037 4.63914 56.3811 5.91656 56.3811 7.49232C56.3811 9.06809 55.1037 10.3455 53.528 10.3455C51.9522 10.3455 50.6748 9.06809 50.6748 7.49232Z" id="Circle" fill="#263238" fill-rule="evenodd" stroke="none" />
      <path d="M255.124 21.025L255.124 141.781C255.124 150.12 248.363 156.881 240.023 156.881L22.949 156.881C15.7409 156.88 9.53861 151.784 8.13857 144.714L8.13857 144.67C7.95401 143.713 7.86163 142.741 7.8627 141.766L7.8627 21.025L255.124 21.025Z" id="Shape" fill="none" fill-rule="evenodd" stroke="#263238" stroke-width="1.10311" />
      <path d="M254.891 39.6977C253.833 39.1032 252.707 38.6376 251.537 38.311L250.18 32.2489L244.415 32.2489L243.072 38.311C241.896 38.6318 240.764 39.0976 239.703 39.6977L234.498 36.3653L230.425 40.4237L233.699 45.6291C233.1 46.6904 232.634 47.8219 232.313 48.9977L226.251 50.3408L226.251 56.1052L232.313 57.4629C232.631 58.6445 233.097 59.7812 233.699 60.846L230.367 66.0877L234.447 70.1606L239.682 66.8282C240.741 67.4294 241.87 67.8975 243.043 68.2222L244.393 74.277L250.136 74.277L251.486 68.2222C252.657 67.8943 253.783 67.4263 254.841 66.8283L255.109 67.0025L255.109 39.5525L254.891 39.6977ZM247.312 60.7517C244.299 60.7517 241.582 58.936 240.429 56.1517C239.277 53.3674 239.916 50.163 242.047 48.0333C244.179 45.9035 247.384 45.268 250.167 46.4232C252.951 47.5784 254.764 50.2968 254.761 53.3102C254.761 55.285 253.976 57.1789 252.579 58.5747C251.181 59.9704 249.287 60.7536 247.312 60.7517L247.312 60.7517Z" id="Shape" fill="#263238" fill-rule="evenodd" stroke="none" />
      <path d="M151.001 45.542L151.001 33.3887L138.223 30.5501C137.533 28.0811 136.559 25.7007 135.319 23.457L136.865 21.0249L76.5347 21.0249L78.023 23.3917C76.7679 25.6255 75.7926 28.0053 75.119 30.4774L62.3342 33.3234L62.3342 45.5057L75.119 48.3588C75.7926 50.8494 76.7678 53.2485 78.023 55.5026L71.0026 66.5451L79.6057 75.1409L90.6409 68.1133C92.8796 69.3726 95.2608 70.3597 97.7339 71.0536L100.58 83.7949L112.704 83.7949L115.564 71.0246C118.029 70.3274 120.403 69.3404 122.636 68.0843L133.678 75.1119L142.274 66.5161L135.297 55.4736C136.534 53.2336 137.508 50.8584 138.201 48.3952L151.001 45.542ZM106.715 55.1687C98.0419 55.1687 91.0112 48.1381 91.0112 39.4653C91.0112 30.7926 98.0419 23.762 106.715 23.762C115.387 23.762 122.418 30.7926 122.418 39.4653C122.419 43.6326 120.765 47.6277 117.819 50.5727C114.874 53.5178 110.878 55.1711 106.713 55.1687L106.715 55.1687Z" id="Shape" fill="#263238" fill-rule="evenodd" stroke="none" />
      <path d="M70.3641 128.996L70.8795 119.347L60.8825 116.53C60.4184 114.547 59.7316 112.623 58.8352 110.795L64.8755 102.315L58.3996 95.135L49.3536 100.217C47.6245 99.1292 45.7755 98.2448 43.8433 97.5816L42.1154 87.3305L32.4741 86.8877L29.6863 96.9137C27.7 97.3591 25.7744 98.0416 23.9509 98.9465L15.4785 92.9135L8.28381 99.3821L13.4094 108.435C12.3105 110.157 11.4232 112.005 10.7667 113.938L7.86272 114.418L7.86272 127.486L9.98264 128.081C10.4224 130.07 11.1026 131.999 12.0082 133.824L7.84094 139.668L8.11682 144.67L8.11682 144.714L12.422 149.483L21.4825 144.365C23.2086 145.475 25.064 146.37 27.0073 147.029L28.7062 156.874L28.7062 156.874L28.786 157.288L38.4273 157.796L38.6814 156.874L38.6814 156.874L41.2152 147.777C43.2104 147.331 45.1455 146.648 46.9796 145.745L55.4375 151.77L62.6249 145.309L57.5429 136.248C58.6315 134.529 59.5067 132.684 60.1492 130.753L70.3641 128.996ZM44.758 113.931C41.3806 110.175 36.0726 108.823 31.3098 110.507C26.5471 112.19 23.268 116.578 23.002 121.622C22.7361 126.667 25.5357 131.375 30.095 133.55C34.6543 135.725 40.0751 134.939 43.8287 131.558C48.9309 126.949 49.3464 119.082 44.758 113.96L44.758 113.931Z" id="Shape" fill="#263238" fill-rule="evenodd" stroke="none" />
      <path d="M147.48 114.614C147.853 113.119 148.05 111.587 148.068 110.047L155.001 106.417L153.084 99.3821L145.258 99.7451C144.465 98.4303 143.523 97.2121 142.448 96.1151L144.764 88.6301L138.448 85L133.163 90.7645C131.671 90.4045 130.145 90.2097 128.611 90.1837L124.981 83.2504L117.953 85.1598L118.323 92.9933C117.008 93.7858 115.79 94.7287 114.693 95.8029L107.201 93.487L103.571 99.7959L109.379 105.074C109.004 106.562 108.811 108.091 108.806 109.626L101.858 113.256L103.774 120.284L111.615 119.913C112.392 121.235 113.331 122.454 114.41 123.543L112.08 130.992L118.403 134.622L123.66 128.901C125.153 129.277 126.686 129.47 128.226 129.475L131.856 136.415L138.884 134.506L138.572 127.812L138.521 126.665C139.854 125.88 141.088 124.937 142.194 123.856L149.679 126.179L152.772 120.777L153.295 119.863L147.48 114.614ZM130.876 118.882C127.19 119.899 123.255 118.591 120.911 115.571C118.567 112.551 118.276 108.414 120.176 105.096C122.075 101.778 125.788 99.933 129.58 100.424C133.372 100.916 136.492 103.646 137.483 107.339C138.826 112.349 135.876 117.504 130.876 118.882L130.876 118.882Z" id="Shape" fill="#263238" fill-rule="evenodd" stroke="none" />
      <path d="M227.862 126.985L229.459 117.329L219.688 113.401C219.466 111.343 218.995 109.32 218.286 107.375L225.321 99.5419L219.629 91.5559L209.93 95.6723C208.32 94.3815 206.56 93.2895 204.688 92.4198L204.122 81.9001L194.466 80.3029L190.51 90.0313C188.461 90.272 186.446 90.747 184.506 91.447L176.65 84.412L168.701 90.1039L172.824 99.796C171.689 101.213 170.704 102.743 169.884 104.363C169.775 104.588 169.659 104.813 169.557 105.038L159.045 105.619L157.44 115.26L159.023 115.899L167.212 119.202C167.436 121.25 167.906 123.264 168.613 125.199L161.564 133.083L167.263 141.069L176.955 136.931C178.56 138.233 180.318 139.335 182.19 140.212L182.734 150.681L192.383 152.279L196.332 142.623C198.385 142.398 200.404 141.925 202.343 141.214L210.184 148.249L218.17 142.55L214.046 132.851C215.36 131.239 216.47 129.471 217.35 127.587L227.862 126.985ZM200.783 126.549C196.629 129.53 191.088 129.714 186.745 127.016C182.402 124.319 180.112 119.27 180.943 114.225C181.773 109.181 185.561 105.133 190.54 103.971C195.519 102.808 200.708 104.759 203.687 108.914C207.75 114.59 206.443 122.485 200.768 126.549L200.783 126.549Z" id="Shape" fill="#263238" fill-rule="evenodd" stroke="none" />
    </g>
    <g id="freepik--Graphics--inject-57" transform="translate(39.878906 30.679626)">
      <path d="M0 93.9009L0 84.383C0 81.7547 0.929239 79.5113 2.78772 77.6529C4.64619 75.7944 6.88958 74.8651 9.51786 74.8651L85.443 74.8651C88.0712 74.8651 90.3146 75.7944 92.1731 77.6529C94.0316 79.5113 94.9608 81.7547 94.9608 84.383L94.9608 189.501C94.9608 192.129 94.0316 194.372 92.1731 196.231C90.3146 198.089 88.0712 199.018 85.443 199.018L9.51786 199.018C6.88958 199.018 4.64619 198.089 2.78772 196.231C0.929239 194.372 0 192.129 0 189.501L0 93.9009Z" id="Rectangle" fill="#51C8B9" fill-rule="evenodd" stroke="#263238" stroke-width="1.10311" />
      <path d="M0 93.9009L0 84.383C0 81.7547 0.929239 79.5113 2.78772 77.6529C4.64619 75.7944 6.88958 74.8651 9.51786 74.8651L85.443 74.8651C88.0712 74.8651 90.3146 75.7944 92.1731 77.6529C94.0316 79.5113 94.9608 81.7547 94.9608 84.383L94.9608 189.501C94.9608 192.129 94.0316 194.372 92.1731 196.231C90.3146 198.089 88.0712 199.018 85.443 199.018L9.51786 199.018C6.88958 199.018 4.64619 198.089 2.78772 196.231C0.929239 194.372 0 192.129 0 189.501L0 93.9009Z" id="Rectangle" fill="#000000" fill-opacity="0.2" fill-rule="evenodd" stroke="none" />
      <path d="M103.796 93.7629L103.796 198.88C103.798 201.405 102.797 203.828 101.012 205.615C99.2266 207.401 96.8047 208.405 94.2791 208.406L18.3532 208.406C13.0967 208.402 8.83863 204.137 8.84264 198.88L8.84264 93.7629C8.84083 88.5125 13.0962 84.2509 18.35 84.245L94.2783 84.245C99.5349 84.245 103.796 88.5063 103.796 93.7629L103.796 93.7629Z" id="Shape" fill="#FFFFFF" fill-rule="evenodd" stroke="#263238" stroke-width="1.10311" stroke-linecap="round" stroke-linejoin="round" />
      <path d="M103.796 93.7629L103.796 99.3894L8.84264 99.3894L8.84264 93.7629C8.84082 88.5125 13.0962 84.2509 18.35 84.245L94.2783 84.245C99.5349 84.245 103.796 88.5063 103.796 93.7629L103.796 93.7629Z" id="Shape" fill="#51C8B9" fill-rule="evenodd" stroke="#263238" stroke-width="1.10311" />
      <path d="M17.7725 105.909L41.1352 105.909L41.1352 109.829L17.7725 109.829L17.7725 105.909Z" id="Rectangle" fill="#51C8B9" fill-rule="evenodd" stroke="none" />
      <path d="M17.7725 141.04L41.1352 141.04L41.1352 144.96L17.7725 144.96L17.7725 141.04Z" id="Rectangle" fill="#51C8B9" fill-rule="evenodd" stroke="none" />
      <path d="M17.7725 172.897L41.1352 172.897L41.1352 176.817L17.7725 176.817L17.7725 172.897Z" id="Rectangle" fill="#51C8B9" fill-rule="evenodd" stroke="none" />
      <path d="M17.7725 115.616L84.1217 115.616L84.1217 118.49L17.7725 118.49L17.7725 115.616Z" id="Rectangle" fill="#263238" fill-rule="evenodd" stroke="none" />
      <path d="M17.7725 121.111L72.1572 121.111L72.1572 123.914L17.7725 123.914L17.7725 121.111Z" id="Rectangle" fill="#263238" fill-rule="evenodd" stroke="none" />
      <path d="M17.7725 126.52L79.2792 126.52L79.2792 129.322L17.7725 129.322L17.7725 126.52Z" id="Rectangle" fill="#263238" fill-rule="evenodd" stroke="none" />
      <path d="M17.7725 131.921L79.2792 131.921L79.2792 134.724L17.7725 134.724L17.7725 131.921Z" id="Rectangle" fill="#263238" fill-rule="evenodd" stroke="none" />
      <path d="M17.7725 147.472L84.1217 147.472L84.1217 150.347L17.7725 150.347L17.7725 147.472Z" id="Rectangle" fill="#263238" fill-rule="evenodd" stroke="none" />
      <path d="M17.7725 152.968L72.1572 152.968L72.1572 155.771L17.7725 155.771L17.7725 152.968Z" id="Rectangle" fill="#263238" fill-rule="evenodd" stroke="none" />
      <path d="M17.7725 158.377L79.2792 158.377L79.2792 161.179L17.7725 161.179L17.7725 158.377Z" id="Rectangle" fill="#263238" fill-rule="evenodd" stroke="none" />
      <path d="M17.7725 182.451L84.1217 182.451L84.1217 185.326L17.7725 185.326L17.7725 182.451Z" id="Rectangle" fill="#263238" fill-rule="evenodd" stroke="none" />
      <path d="M17.7725 187.954L72.1572 187.954L72.1572 190.757L17.7725 190.757L17.7725 187.954Z" id="Rectangle" fill="#263238" fill-rule="evenodd" stroke="none" />
      <path d="M17.7725 193.363L79.2792 193.363L79.2792 196.165L17.7725 196.165L17.7725 193.363Z" id="Rectangle" fill="#263238" fill-rule="evenodd" stroke="none" />
      <path d="M210.816 11.3546L210.816 53.8402C210.817 56.847 209.622 59.7348 207.493 61.8638C205.364 63.9928 202.476 65.1884 199.465 65.1875L101.611 65.1875C98.6003 65.1895 95.7122 63.9948 93.5826 61.8666C91.453 59.7383 90.2565 56.8509 90.2565 53.8402L90.2565 11.3546C90.2595 5.08701 95.3401 0.00494627 101.609 0L199.461 0C205.732 5.53894e-06 210.816 5.08365 210.816 11.3546L210.816 11.3546Z" id="Shape" fill="#FFFFFF" fill-rule="evenodd" stroke="#222221" stroke-width="1.10311" />
      <path d="M210.816 11.3546L210.816 12.3275L90.2565 12.3275L90.2565 11.3546C90.2595 5.08701 95.34 0.00494627 101.609 0L199.461 0C205.732 5.53894e-06 210.816 5.08365 210.816 11.3546L210.816 11.3546Z" id="Shape" fill="#51C8B9" fill-rule="evenodd" stroke="#263238" stroke-width="1.10311" />
      <path d="M107.971 8.19655C107.473 8.69574 106.723 8.84559 106.071 8.57615C105.42 8.3067 104.995 7.67109 104.995 6.96598C104.995 6.26086 105.42 5.62525 106.071 5.35581C106.723 5.08636 107.473 5.23621 107.971 5.73541C108.645 6.41715 108.645 7.5148 107.971 8.19655L107.971 8.19655Z" id="Shape" fill="#263238" fill-rule="evenodd" stroke="none" />
      <path d="M116.044 8.19655C115.546 8.69574 114.796 8.84559 114.145 8.57615C113.493 8.3067 113.068 7.67109 113.068 6.96598C113.068 6.26086 113.493 5.62525 114.145 5.35581C114.796 5.08636 115.546 5.23621 116.044 5.73541C116.718 6.41715 116.718 7.5148 116.044 8.19655L116.044 8.19655Z" id="Shape" fill="#263238" fill-rule="evenodd" stroke="none" />
      <path d="M124.117 8.19655C123.619 8.69574 122.869 8.84559 122.218 8.57615C121.566 8.3067 121.141 7.67109 121.141 6.96598C121.141 6.26086 121.566 5.62525 122.218 5.35581C122.869 5.08636 123.619 5.23621 124.117 5.73541C124.791 6.41715 124.791 7.5148 124.117 8.19655L124.117 8.19655Z" id="Shape" fill="#263238" fill-rule="evenodd" stroke="none" />
      <path d="M97.9447 20.1392L137.352 20.1392L137.352 54.2032L97.9447 54.2032L97.9447 20.1392Z" id="Rectangle" fill="none" fill-rule="evenodd" stroke="#263238" stroke-width="1.10311" stroke-linecap="round" stroke-linejoin="round" stroke-dasharray="4.41242 4.41242" />
      <path d="M143.436 20.1392L188.789 20.1392L188.789 22.535L143.436 22.535L143.436 20.1392Z" id="Rectangle" fill="#263238" fill-rule="evenodd" stroke="none" />
      <path d="M143.436 25.0978L178.226 25.0978L178.226 27.4864L143.436 27.4864L143.436 25.0978Z" id="Rectangle" fill="#263238" fill-rule="evenodd" stroke="none" />
      <path d="M143.436 30.0346L195.236 30.0346L195.236 32.4522L143.436 32.4522L143.436 30.0346Z" id="Rectangle" fill="#263238" fill-rule="evenodd" stroke="none" />
      <path d="M143.436 34.848L187.548 34.848L187.548 37.2656L143.436 37.2656L143.436 34.848Z" id="Rectangle" fill="#263238" fill-rule="evenodd" stroke="none" />
      <path d="M187.192 126.28L187.192 121.54C187.192 120.231 187.655 119.113 188.58 118.187C189.506 117.262 190.623 116.799 191.933 116.799L214.112 116.799C215.421 116.799 216.538 117.262 217.464 118.187C218.39 119.113 218.853 120.231 218.853 121.54L218.853 134.557C218.853 135.866 218.39 136.983 217.464 137.909C216.538 138.835 215.421 139.298 214.112 139.298L196.673 139.298L191.933 139.298C190.623 139.298 189.506 138.835 188.58 137.909C187.655 136.983 187.192 135.866 187.192 134.557L187.192 126.28Z" id="Rectangle" fill="#FFFFFF" fill-rule="evenodd" stroke="#263238" stroke-width="1.10311" stroke-linecap="round" stroke-linejoin="round" />
      <path d="M197.407 123.565L191.316 127.384L196.971 132.393" id="Polygon" fill="none" fill-rule="evenodd" stroke="#263238" stroke-width="1.10311" stroke-linecap="round" stroke-linejoin="round" />
      <path d="M208.5 132.756L213.974 128.095L207.658 123.957" id="Polygon" fill="none" fill-rule="evenodd" stroke="#263238" stroke-width="1.10311" stroke-linecap="round" stroke-linejoin="round" />
      <path d="M200.369 135.631L204.863 121.532" id="Line" fill="none" fill-rule="evenodd" stroke="#263238" stroke-width="1.10311" stroke-linecap="round" stroke-linejoin="round" />
    </g>
    <g id="freepik--Character--inject-57" transform="translate(143.6731 120.18315)">
      <path d="M49.7332 168.822C49.7332 168.822 28.6792 174.855 25.7389 175.9C23.0672 176.844 15.8217 179.385 10.384 178.594C9.85907 178.518 9.33996 178.407 8.83037 178.26C3.32003 176.619 0.844367 175.087 0.118367 171.624C-0.607633 168.161 2.13665 165.606 4.77929 163.972C7.42192 162.339 21.7532 160.633 21.7532 160.633L25.2162 161.649L25.2162 161.649L49.7332 168.822Z" id="Shape" fill="#51C8B9" fill-rule="evenodd" stroke="none" />
      <path d="M10.384 178.594C9.85907 178.518 9.33996 178.407 8.83037 178.26C3.32003 176.619 0.844367 175.087 0.118367 171.624C-0.607633 168.161 2.13665 165.606 4.77929 163.972C7.42193 162.339 21.7532 160.633 21.7532 160.633L25.2162 161.649C22.0798 163.101 10.4058 163.892 7.85751 165.359C5.30924 166.825 4.08231 169.584 5.58512 173.345C6.39102 175.305 8.53997 177.229 10.384 178.594L10.384 178.594Z" id="Shape" fill="#FFFFFF" fill-rule="evenodd" stroke="none" />
      <path d="M46.5679 169.678C46.5679 169.678 30.7556 173.773 24.483 176.394C18.2103 179.015 6.25311 180.162 1.97697 174.76C-2.29917 169.359 1.48329 164.698 5.74491 163.66C10.0065 162.622 18.6242 160.988 23.3286 161.649" id="Shape" fill="none" fill-rule="evenodd" stroke="#263238" stroke-width="1.10311" stroke-linecap="round" stroke-linejoin="round" />
      <path d="M10.6961 178.311C10.6961 178.311 2.65205 173.897 5.32374 167.711C7.29846 163.152 18.0287 164.139 23.3431 161.649" id="Shape" fill="none" fill-rule="evenodd" stroke="#263238" stroke-width="1.10311" stroke-linecap="round" stroke-linejoin="round" />
      <path d="M113.861 179.574C113.643 181.752 112.881 183.792 110.703 185.077C109.251 185.934 107.189 186.442 104.234 186.413C96.8505 186.318 82.9694 181.04 82.9694 181.04L69.974 173.853L76.7331 163.159L78.5844 160.255L83.3615 161.329C83.3615 161.329 87.3182 163.573 91.2966 165.359C95.2751 167.145 104.938 167.537 108.343 170.274C111.748 173.011 114.231 175.987 113.861 179.574L113.861 179.574Z" id="Shape" fill="#51C8B9" fill-rule="evenodd" stroke="none" />
      <path d="M113.861 179.574C113.643 181.752 112.881 183.792 110.703 185.077C111.33 182.936 111.202 180.644 110.34 178.587C108.888 175.327 104.161 172.452 97.9469 171.973C91.7324 171.494 86.9771 168.589 84.4869 167.29C82.5412 166.281 78.4393 164.074 76.7332 163.159L78.5845 160.255L83.3616 161.329C83.3616 161.329 87.3183 163.573 91.2968 165.359C95.2752 167.145 104.938 167.537 108.343 170.274C111.748 173.011 114.231 175.987 113.861 179.574L113.861 179.574Z" id="Shape" fill="#FFFFFF" fill-rule="evenodd" stroke="none" />
      <path d="M72.8564 175.871C82.2108 181.309 92.5495 184.84 103.276 186.26C105.643 186.543 108.394 186.587 109.977 184.808C110.828 183.77 111.221 182.432 111.066 181.098C110.783 177.759 107.973 175.116 104.895 173.788C101.817 172.459 98.4261 172.154 95.1519 171.421C91.8955 170.687 88.7477 169.535 85.7865 167.994C83.4343 166.767 81.1619 165.279 78.5701 164.727C75.9782 164.175 72.8927 164.843 71.5061 167.108" id="Shape" fill="none" fill-rule="evenodd" stroke="#263238" stroke-width="1.10311" stroke-linecap="round" stroke-linejoin="round" />
      <path d="M109.106 185.716C111.572 184.535 113.335 182.258 113.861 179.574C114.333 176.43 112.539 173.265 110.02 171.334C107.501 169.403 104.343 168.488 101.228 167.842C98.1139 167.196 94.9267 166.76 91.9429 165.577C87.3909 163.791 82.8969 160.277 78.1489 161.533" id="Shape" fill="none" fill-rule="evenodd" stroke="#263238" stroke-width="1.10311" stroke-linecap="round" stroke-linejoin="round" />
      <path d="M87.5216 63.3994L65.531 55.0359L65.2552 54.927C65.2552 54.927 65.335 54.3462 65.4004 53.475C65.5383 51.718 65.6109 48.8576 64.7833 47.892C63.5563 46.44 60.086 47.6597 56.6956 46.1061C53.3052 44.5524 47.0398 47.333 47.0398 47.333C47.0398 47.333 42.5096 46.4981 40.5058 49.7651C39.4894 52.4005 39.8379 56.2991 39.8379 56.2991L39.4241 56.4443C36.8032 57.4244 22.5446 62.7896 19.5317 64.9458C16.1993 67.3053 12.5113 91.5319 11.3279 98.6467C10.1445 105.762 8.03909 112.172 9.10631 114.619C10.1735 117.065 25.4921 128.863 34.3058 131.905C43.1194 134.947 74.3737 134.083 74.3737 134.083C74.3737 134.083 74.8819 133.945 75.7894 133.654C81.0747 131.956 99.8273 124.942 109.781 108.477C109.795 108.506 100.154 76.9029 87.5216 63.3994L87.5216 63.3994ZM28.1057 104.15C26.4867 105.297 27.3797 109.74 27.3797 109.74L24.6282 107.315L31.5397 90.3195L34.4873 103.387C34.4873 103.387 29.7247 103.01 28.1057 104.15L28.1057 104.15ZM83.3977 114.945C82.6354 115.337 85.5757 107.17 84.1818 105.319C82.7879 103.467 78.5843 103.642 78.5843 103.642L78.9401 101.413L81.4303 88.6351L82.2579 87.655C82.2579 87.655 90.8102 102.313 92.3421 107.482C92.342 107.497 83.0202 114.945 83.3977 114.945L83.3977 114.945Z" id="Shape" fill="#51C8B9" fill-rule="evenodd" stroke="none" />
      <path d="M46.0016 10.3941L34.6469 22.4457C34.6469 22.4457 33.086 23.8324 33.7031 27.3244C34.3202 30.8165 35.7722 33.8584 36.8685 34.0617C37.7363 34.2136 38.6155 34.2913 39.4966 34.294C39.4966 34.294 41.9287 39.5648 43.6565 41.6339C43.6565 41.6339 44.2519 49.7723 43.9324 52.0302C43.9324 52.0302 48.0126 55.5949 51.8531 56.045C55.6936 56.4951 61.625 50.6145 61.625 50.6145L63.077 43.4126C63.077 43.4126 66.5618 38.1273 66.7942 36.7188C67.0265 35.3104 68.6237 35.6734 69.4078 34.9764C70.1919 34.2795 71.9996 31.1795 72.3118 28.2464C72.6239 25.3134 72.6312 21.9447 69.2263 22.9321C66.2714 22.1408 68.1228 15.8972 68.1228 15.8972L62.9319 11.3234L46.0016 10.3941Z" id="Shape" fill="#FFFFFF" fill-rule="evenodd" stroke="none" />
      <path d="M65.5308 55.0358C65.3596 55.4845 65.1632 55.9232 64.9428 56.3499C63.0697 59.8782 54.9095 66.6083 54.9095 66.6083L52.4411 59.0216L51.0907 66.6083C48.3682 65.4176 40.0628 58.223 40.0628 58.223C40.0628 58.223 39.7796 57.5478 39.4384 56.4951L39.8522 56.3499C39.8522 56.3499 39.5038 52.4222 40.5202 49.8159C42.5094 46.5489 47.0542 47.3838 47.0542 47.3838C47.0542 47.3838 53.3196 44.6032 56.71 46.1568C60.1004 47.7105 63.5707 46.5053 64.7976 47.9428C66.0246 49.3803 65.2695 54.956 65.2695 54.956L65.5308 55.0358Z" id="Shape" fill="#FFFFFF" fill-opacity="0.5" fill-rule="evenodd" stroke="none" />
      <path d="M87.5215 63.3994L65.531 55.0359L65.2551 54.927C65.2551 54.927 65.3349 54.3462 65.4003 53.475L64.9429 56.3281L61.6904 60.7422C65.1672 62.0223 68.5617 63.5159 71.8544 65.2143C75.0802 66.9422 76.9225 70.4657 76.5008 74.1006L72.4498 108.767L70.7872 128.449L75.8039 133.654C81.0892 131.956 99.8418 124.942 109.795 108.477C109.795 108.506 100.154 76.9029 87.5215 63.3994L87.5215 63.3994ZM83.398 114.945C82.6357 115.337 85.576 107.17 84.182 105.319C82.7881 103.467 78.5846 103.642 78.5846 103.642L78.9403 101.413L81.4305 88.6351L82.2581 87.655C82.2581 87.655 90.8104 102.313 92.3423 107.482C92.3423 107.497 83.0204 114.945 83.398 114.945L83.398 114.945Z" id="Shape" fill="#000000" fill-opacity="0.2" fill-rule="evenodd" stroke="none" />
      <path d="M35.9465 105.319L32.5271 93.8914C32.5271 93.8914 26.3924 72.9753 22.1888 67.8207L23.2924 82.5295C23.2924 82.5295 19.6624 100.099 16.3445 105.319C13.0267 110.539 12.2862 111.853 16.3445 111.853C20.4029 111.853 30.2837 119.722 30.2837 119.722L29.5214 113.188L35.9465 105.319ZM27.3288 109.74L24.5772 107.315L31.4887 90.3194L34.4363 103.387C34.4363 103.387 29.7028 103.032 28.0838 104.172C26.4648 105.311 27.3288 109.74 27.3288 109.74L27.3288 109.74Z" id="Shape" fill="#000000" fill-opacity="0.2" fill-rule="evenodd" stroke="none" />
      <path d="M43.6567 41.6339C43.6567 41.6339 44.281 47.7976 43.6567 50.6145" id="Shape" fill="none" fill-rule="evenodd" stroke="#263238" stroke-width="1.10311" stroke-linecap="round" stroke-linejoin="round" />
      <path d="M62.2567 49.7869C62.2634 47.8047 62.4923 45.8298 62.9391 43.8988" id="Shape" fill="none" fill-rule="evenodd" stroke="#263238" stroke-width="1.10311" stroke-linecap="round" stroke-linejoin="round" />
      <path d="M63.9047 14.9897C63.9047 14.9897 67.6363 19.6724 67.4403 23.2153C67.2443 26.7581 66.9684 30.9544 67.0628 35.0636C67.1572 39.1727 60.4635 47.7831 57.0222 48.5454C53.581 49.3077 50.6189 49.5037 48.4191 47.304C46.2193 45.1042 44.0196 42.0477 41.1591 38.1273C38.2987 34.2069 38.9811 25.6038 38.9811 25.6038" id="Shape" fill="none" fill-rule="evenodd" stroke="#263238" stroke-width="1.10311" stroke-linecap="round" stroke-linejoin="round" />
      <path d="M54.9168 28.8781C54.6894 30.1646 54.5921 31.4707 54.6263 32.7767C54.5515 33.8774 54.8936 34.9659 55.5847 35.8259C55.9985 36.2469 56.5938 36.5882 56.6737 37.169C56.6696 37.7016 56.3742 38.1892 55.9041 38.4395C55.4385 38.6743 54.9897 38.9412 54.561 39.2381" id="Shape" fill="none" fill-rule="evenodd" stroke="#263238" stroke-width="1.10311" stroke-linecap="round" stroke-linejoin="round" />
      <path d="M49.0143 39.6882C49.0143 39.6882 49.4427 42.4688 53.1671 43.0496" id="Shape" fill="none" fill-rule="evenodd" stroke="#263238" stroke-width="1.10311" stroke-linecap="round" stroke-linejoin="round" />
      <path d="M49.3992 30.998C49.3992 31.8038 49.0507 32.45 48.6224 32.45C48.1941 32.45 47.8456 31.8038 47.8456 30.998C47.8456 30.1921 48.1941 29.546 48.6224 29.546C49.0507 29.546 49.3992 30.1994 49.3992 30.998L49.3992 30.998Z" id="Shape" fill="#263238" fill-rule="evenodd" stroke="none" />
      <path d="M60.5144 31.3465C60.5144 32.1523 60.1659 32.7985 59.7375 32.7985C59.3092 32.7985 58.9607 32.1451 58.9607 31.3465C58.9607 30.5479 59.3092 29.8945 59.7375 29.8945C60.1659 29.8945 60.5144 30.5406 60.5144 31.3465L60.5144 31.3465Z" id="Shape" fill="#263238" fill-rule="evenodd" stroke="none" />
      <path d="M58.2709 27.8254C58.2709 27.8254 61.9009 24.1954 64.9429 28.2464" id="Shape" fill="none" fill-rule="evenodd" stroke="#263238" stroke-width="2.20621" stroke-linecap="round" stroke-linejoin="round" />
      <path d="M50.6261 27.898C50.6261 27.898 48.332 25.3279 44.7165 27.898" id="Shape" fill="none" fill-rule="evenodd" stroke="#263238" stroke-width="2.20621" stroke-linecap="round" stroke-linejoin="round" />
      <path d="M43.9326 45.0606C43.9326 45.0606 46.1469 51.159 51.0909 52.8941C56.035 54.6293 62.598 45.6341 62.598 45.6341L62.2568 44.4653C62.2568 44.4653 57.9516 50.0555 53.1673 49.1044C48.383 48.1534 43.6567 41.6629 43.6567 41.6629L43.9326 45.0606Z" id="Shape" fill="#263238" fill-rule="evenodd" stroke="none" />
      <path d="M39.4965 34.0617C39.4965 34.0617 36.5489 35.0999 35.7648 32.8057C34.9807 30.5116 32.2945 24.464 34.6468 22.4457C36.999 20.4274 38.8866 25.1101 38.8866 25.1101" id="Shape" fill="none" fill-rule="evenodd" stroke="#263238" stroke-width="1.10311" stroke-linecap="round" stroke-linejoin="round" />
      <path d="M67.0555 35.3104C67.0555 35.3104 69.7925 35.8622 70.5766 33.568C71.3607 31.2739 74.0469 25.2263 71.6946 23.208C69.3424 21.1897 67.4548 25.8724 67.4548 25.8724" id="Shape" fill="none" fill-rule="evenodd" stroke="#263238" stroke-width="1.10311" stroke-linecap="round" stroke-linejoin="round" />
      <path d="M38.8868 30.998C39.9107 30.8365 40.8347 30.2914 41.4713 29.4734C41.8601 28.7553 42.1066 27.9689 42.1973 27.1574C42.4669 25.6135 42.6029 24.0493 42.6039 22.482C42.5719 21.8697 42.6282 21.256 42.7709 20.6597C42.9889 20.0597 43.3246 19.5092 43.7582 19.0408C44.7819 17.8356 46.0234 16.8192 47.0035 15.5705C48.0652 14.3795 48.5903 12.8043 48.4555 11.2145C53.0021 14.9632 58.9747 16.5075 64.7687 15.4325C69.9596 14.4161 74.9327 9.86411 74.3301 4.14323C74.0967 2.17664 72.6371 0.576881 70.7001 0.16475C68.1373 -0.474133 65.8359 0.89075 63.5127 1.76922C59.2801 3.36641 55.1347 0.622134 50.8585 0.16475C47.2285 -0.234552 42.7055 0.222832 40.8034 3.86009C40.8034 3.86009 34.2694 4.62965 31.3654 10.0311C28.4614 15.4325 33.9572 22.9031 33.9572 22.9031C33.9572 22.9031 36.1352 20.2314 38.9884 25.6328L38.8868 30.998Z" id="Shape" fill="#263238" fill-rule="evenodd" stroke="none" />
      <path d="M64.355 13.6103C64.355 13.6103 62.6561 22.4675 67.092 26.7581C67.092 26.7581 68.0648 24.0937 69.0449 23.4403C70.481 20.2459 70.1881 16.5395 68.2681 13.6103C64.9866 8.45568 64.355 13.6103 64.355 13.6103L64.355 13.6103Z" id="Shape" fill="#263238" fill-rule="evenodd" stroke="none" />
      <path d="M72.4427 3.5334C71.6534 5.98236 69.778 7.93 67.3607 8.81141C61.2042 11.3234 55.2292 8.5428 49.0582 7.9983C44.027 7.54818 38.4732 12.0929 38.1174 17.2621" id="Shape" fill="none" fill-rule="evenodd" stroke="#FFFFFF" stroke-opacity="0.2" stroke-width="1.10311" stroke-linecap="round" stroke-linejoin="round" />
      <path d="M34.3203 15.8972C34.4742 11.7331 37.0202 8.03294 40.8543 6.4011" id="Shape" fill="none" fill-rule="evenodd" stroke="#FFFFFF" stroke-opacity="0.2" stroke-width="1.10311" stroke-linecap="round" stroke-linejoin="round" />
      <path d="M42.2336 49.7869C44.9411 52.6084 48.2075 54.8338 51.8241 56.3209C51.8241 56.3209 59.193 54.1792 62.9392 49.0609" id="Shape" fill="none" fill-rule="evenodd" stroke="#263238" stroke-width="1.10311" stroke-linecap="round" stroke-linejoin="round" />
      <path d="M40.525 30.9836C40.525 27.3821 43.4446 24.4625 47.0461 24.4625C50.6476 24.4625 53.5672 27.3821 53.5672 30.9836C53.5672 34.5851 50.6476 37.5047 47.0461 37.5047C43.4446 37.5047 40.525 34.5851 40.525 30.9836Z" id="Circle" fill="none" fill-rule="evenodd" stroke="#263238" stroke-width="1.10311" stroke-linecap="round" stroke-linejoin="round" />
      <path d="M55.0828 31.0125C55.0828 27.4115 58.002 24.4923 61.603 24.4923C65.2039 24.4923 68.1231 27.4115 68.1231 31.0125C68.1231 34.6134 65.2039 37.5326 61.603 37.5326C58.002 37.5326 55.0828 34.6134 55.0828 31.0125Z" id="Circle" fill="none" fill-rule="evenodd" stroke="#263238" stroke-width="1.10311" stroke-linecap="round" stroke-linejoin="round" />
      <path d="M43.6565 47.3548C42.322 47.7051 41.1872 48.5831 40.513 49.7869C39.3586 51.8197 40.0556 58.2157 40.0556 58.2157C40.0556 58.2157 46.016 64.1109 51.0908 66.601L52.5864 58.1867L54.9096 66.601C54.9096 66.601 62.7649 61.0471 64.9429 56.3499C64.9429 56.3499 65.6689 50.8686 64.9429 49.0899C64.6047 48.0775 63.6652 47.3881 62.5979 47.3693" id="Shape" fill="none" fill-rule="evenodd" stroke="#263238" stroke-width="1.10311" stroke-linecap="round" stroke-linejoin="round" />
      <path d="M34.3202 103.649C34.3202 103.649 31.9898 88.0398 28.8897 81.6728" id="Shape" fill="none" fill-rule="evenodd" stroke="#263238" stroke-width="1.10311" stroke-linecap="round" stroke-linejoin="round" />
      <path d="M22.1886 67.8207C23.9935 70.3859 25.6049 73.082 27.0093 75.8866" id="Shape" fill="none" fill-rule="evenodd" stroke="#263238" stroke-width="1.10311" stroke-linecap="round" stroke-linejoin="round" />
      <path d="M83.3978 79.473C84.0236 76.8632 84.8813 74.3145 85.9605 71.8573" id="Shape" fill="none" fill-rule="evenodd" stroke="#263238" stroke-width="1.10311" stroke-linecap="round" stroke-linejoin="round" />
      <path d="M78.5846 103.649C78.5846 103.649 80.2616 92.9476 82.2654 84.1339" id="Shape" fill="none" fill-rule="evenodd" stroke="#263238" stroke-width="1.10311" stroke-linecap="round" stroke-linejoin="round" />
      <path d="M81.4305 88.6206C83.0515 86.4713 85.3308 84.911 87.9209 84.1775" id="Shape" fill="none" fill-rule="evenodd" stroke="#263238" stroke-width="1.10311" stroke-linecap="round" stroke-linejoin="round" />
      <path d="M65.2624 54.9269C65.2624 54.9269 78.7878 60.3356 87.5216 63.4066C87.5216 63.4066 98.2664 73.5053 109.788 108.506C109.788 108.506 99.232 126.264 79.1508 131.956" id="Shape" fill="none" fill-rule="evenodd" stroke="#263238" stroke-width="1.10311" stroke-linecap="round" stroke-linejoin="round" />
      <path d="M82.6356 115.577L92.3422 107.497C92.3422 107.497 97.475 103.598 102.811 106.262" id="Shape" fill="none" fill-rule="evenodd" stroke="#263238" stroke-width="1.10311" stroke-linecap="round" stroke-linejoin="round" />
      <path d="M82.2653 87.655C82.2653 87.655 90.2876 99.5106 92.3422 107.497" id="Shape" fill="none" fill-rule="evenodd" stroke="#263238" stroke-width="1.10311" stroke-linecap="round" stroke-linejoin="round" />
      <path d="M27.4376 110.19L24.599 107.497C24.599 107.497 20.3882 106.771 15.6111 109.958" id="Shape" fill="none" fill-rule="evenodd" stroke="#263238" stroke-width="1.10311" stroke-linecap="round" stroke-linejoin="round" />
      <path d="M24.599 107.497C24.599 107.497 28.1274 95.8806 31.6049 89.9347" id="Shape" fill="none" fill-rule="evenodd" stroke="#263238" stroke-width="1.10311" stroke-linecap="round" stroke-linejoin="round" />
      <path d="M39.8523 56.3499C39.8523 56.3499 20.3883 63.6534 18.4789 65.7879C16.5695 67.9223 9.31678 108.76 9.12075 113.435C8.95378 117.617 24.1127 127.004 31.6267 130.961" id="Shape" fill="none" fill-rule="evenodd" stroke="#263238" stroke-width="1.10311" stroke-linecap="round" stroke-linejoin="round" />
      <path d="M54.4088 70.1512C54.4088 70.6709 54.0957 71.1395 53.6155 71.3384C53.1353 71.5373 52.5826 71.4273 52.2151 71.0598C51.8476 70.6923 51.7376 70.1396 51.9366 69.6594C52.1355 69.1792 52.604 68.8661 53.1238 68.8661C53.4652 68.8642 53.7931 68.9989 54.0346 69.2404C54.276 69.4818 54.4107 69.8097 54.4088 70.1511L54.4088 70.1512Z" id="Shape" fill="#263238" fill-rule="evenodd" stroke="none" />
      <path d="M76.929 138.555L32.6431 138.555C32.0697 138.555 31.6049 138.09 31.6049 137.517L31.6049 137.517C31.6049 136.943 32.0697 136.479 32.6431 136.479L76.929 136.479C77.5024 136.479 77.9672 136.943 77.9672 137.517L77.9672 137.517C77.9672 138.09 77.5024 138.555 76.929 138.555L76.929 138.555Z" id="Shape" fill="#263238" fill-rule="evenodd" stroke="none" />
      <path d="M78.4829 135.085L84.4143 107.206C84.6008 106.331 84.3814 105.418 83.8174 104.723C83.2535 104.028 82.4054 103.625 81.5103 103.627L29.7465 103.627C28.8592 103.627 28.0187 104.025 27.4563 104.711C26.8938 105.398 26.6685 106.3 26.8425 107.17L32.1641 134.119C32.4328 135.483 33.6134 136.476 35.0028 136.508L75.5063 137.437C76.9344 137.469 78.1836 136.481 78.4829 135.085L78.4829 135.085Z" id="Shape" fill="#FFFFFF" fill-rule="evenodd" stroke="#263238" stroke-width="1.10311" stroke-linecap="round" stroke-linejoin="round" />
      <path d="M59.5924 119.715C59.5885 121.996 57.7373 123.841 55.4568 123.839C53.1763 123.836 51.3293 121.986 51.3306 119.706C51.3318 117.425 53.1809 115.577 55.4613 115.577C56.5582 115.577 57.6101 116.013 58.385 116.789C59.16 117.566 59.5944 118.618 59.5925 119.715L59.5924 119.715Z" id="Shape" fill="#263238" fill-rule="evenodd" stroke="none" />
      <path d="M67.7161 106.291L73.8653 106.291" id="Line" fill="none" fill-rule="evenodd" stroke="#263238" stroke-width="1.10311" stroke-linecap="round" stroke-linejoin="round" />
      <path d="M38.3495 106.291L61.6904 106.291" id="Line" fill="none" fill-rule="evenodd" stroke="#263238" stroke-width="1.10311" stroke-linecap="round" stroke-linejoin="round" />
      <path d="M78.5845 164.684L73.8655 177.069C73.8655 177.069 61.8284 174.034 46.4154 170.876C30.291 167.573 13.455 163.297 4.72126 147.971C3.6613 146.105 2.94982 143.898 3.45076 141.807C4.70674 136.515 11.5965 135.077 16.134 134.547C18.9866 134.239 21.8533 134.079 24.7225 134.068C26.1745 134.068 31.0024 133.277 32.1713 134.141C33.9275 135.422 35.8017 136.533 37.7687 137.459C40.346 138.555 77.9673 136.479 77.9673 136.479C78.6219 135.051 79.0224 133.521 79.1507 131.956C85.0676 128.95 98.7527 126.409 104.561 127.534C113.657 129.298 118.965 134.605 117.955 140.167C116.946 145.728 96.8507 160.64 78.5845 164.684L78.5845 164.684Z" id="Shape" fill="#263238" fill-rule="evenodd" stroke="none" />
      <path d="M78.5844 164.684C78.5844 164.684 67.1354 161.649 57.7845 155.333C48.4336 149.017 41.1301 141.684 28.0984 143.201" id="Shape" fill="none" fill-rule="evenodd" stroke="#FFFFFF" stroke-width="1.10311" stroke-linecap="round" stroke-linejoin="round" />
      <path d="M55.6428 153.844C61.5524 152.146 65.8866 148.32 70.6274 144.653C75.6278 140.64 80.9976 137.111 86.6647 134.112" id="Shape" fill="none" fill-rule="evenodd" stroke="#FFFFFF" stroke-width="1.10311" stroke-linecap="round" stroke-linejoin="round" />
      <path d="M53.5591 32.0289L55.2942 32.0289" id="Line" fill="none" fill-rule="evenodd" stroke="#263238" stroke-width="1.10311" stroke-linecap="round" stroke-linejoin="round" />
    </g>
  </g>
</svg>