<?xml version="1.0" encoding="utf-8"?>
<svg width="20.955322px" height="20.9552px" viewBox="0 0 20.955322 20.9552" version="1.1" xmlns:xlink="http://www.w3.org/1999/xlink" xmlns="http://www.w3.org/2000/svg">
  <g id="vuesaxbrokentick-circle" fill-opacity="1">
    <path d="M3993.96 -846L3993.96 -846L3993.96 -825.045L3973 -825.045L3973 -846L3993.96 -846Z" id="vuesaxbrokentick-circle" fill="none" stroke="none" />
    <g id="vuesaxbrokentick-circle">
      <g id="tick-circle">
        <path d="M3.49254 5.23881C2.40112 6.69694 1.74627 8.51306 1.74627 10.4776C1.74627 15.2973 5.65791 19.209 10.4776 19.209C15.2973 19.209 19.209 15.2973 19.209 10.4776C19.209 5.65791 15.2973 1.74627 10.4776 1.74627C9.22903 1.74627 8.03284 2.00821 6.95888 2.48843" id="Vector" fill="none" stroke="#51C8B9" stroke-width="1.5" stroke-linecap="round" stroke-linejoin="round" />
        <path d="M13.097 9.06313L14.0749 8.07649" id="Vector" fill="none" fill-rule="evenodd" stroke="#51C8B9" stroke-width="1.5" stroke-linecap="round" stroke-linejoin="round" />
        <path d="M6.88105 10.4776L9.27344 12.8787L11.4999 10.661" id="Vector" fill="none" stroke="#51C8B9" stroke-width="1.5" stroke-linecap="round" stroke-linejoin="round" />
        <path d="M20.9552 0L20.9552 20.9552L0 20.9552L0 0L20.9552 0Z" id="Vector" fill="none" fill-rule="evenodd" stroke="none" />
      </g>
    </g>
  </g>
</svg>