<?xml version="1.0" encoding="utf-8"?>
<svg width="24px" height="24px" viewBox="0 0 24 24" version="1.1" xmlns:xlink="http://www.w3.org/1999/xlink" xmlns="http://www.w3.org/2000/svg">
  <g id="vuesaxbrokenclock" fill-opacity="1">
    <path d="M2760 -1674L2760 -1674L2760 -1650L2736 -1650L2736 -1674L2760 -1674Z" id="vuesaxbrokenclock" fill="none" stroke="none" />
    <g id="vuesaxbrokenclock">
      <g id="clock">
        <path d="M15.7109 15.18L12.6109 13.33C12.0709 13.01 11.6309 12.24 11.6309 11.61L11.6309 7.51001" id="Vector" fill="none" stroke="#292D32" stroke-width="1.5" stroke-linecap="round" stroke-linejoin="round" />
        <path d="M4 6C2.75 7.67 2 9.75 2 12C2 17.52 6.48 22 12 22C17.52 22 22 17.52 22 12C22 6.48 17.52 2 12 2C10.57 2 9.2 2.3 7.97 2.85" id="Vector" fill="none" stroke="#292D32" stroke-width="1.5" stroke-linecap="round" stroke-linejoin="round" />
        <path d="M24 0L24 24L0 24L0 0L24 0Z" id="Vector" fill="none" fill-rule="evenodd" stroke="none" />
      </g>
    </g>
  </g>
</svg>