<?xml version="1.0" encoding="utf-8"?>
<svg width="360px" height="360px" viewBox="0 0 360 360" version="1.1" xmlns:xlink="http://www.w3.org/1999/xlink" xmlns="http://www.w3.org/2000/svg">
  <defs>
    <path d="M1327 1388L1327 1388L1327 1748L967 1748L967 1388L1327 1388Z" id="path_1" />
    <path d="M52.507 16.2216C52.507 16.2216 54.6238 18.5472 55.6822 17.4888C56.7406 16.4304 53.7742 10.944 52.2982 9.25201C50.8222 7.56 48.9214 6.9264 47.863 7.77601C46.8046 8.62563 40.2598 14.7456 40.2598 14.7456L14.8438 13.8672L21.2014 5.55122C17.0165 4.59136 13.1044 2.69317 9.76058 0C5.57738 8.4816 -1.69462 25.488 0.35738 25.92C1.61018 26.2008 41.1022 18.72 44.4862 18.5256C47.8702 18.3312 52.507 16.2216 52.507 16.2216L52.507 16.2216Z" id="path_2" />
    <path d="M29.6604 22.6529C28.3922 21.9792 27.0786 21.3946 25.7292 20.9033C22.77 19.8521 31.2228 10.1033 29.106 5.27208C26.9892 0.440881 22.77 -1.48872 19.1772 1.26167C19.1772 1.26167 13.4748 12.2417 11.3652 14.3585C9.09364 16.8479 5.85688 18.234 2.48761 18.1601C1.68782 18.1698 0.889431 18.2299 0.097218 18.3401C-0.30598 23.0201 0.0180176 34.2305 11.7828 37.3841C22.8636 40.3505 27.6012 31.2065 29.6604 22.6529L29.6604 22.6529Z" id="path_3" />
    <path d="M0.188119 4.43523C0.188119 4.43523 -0.445485 10.3464 0.612916 14.364C1.67132 18.3816 1.88011 24.7176 5.65292 25.3512C9.42572 25.9848 21.9177 19.008 24.2433 16.4736C25.8799 14.7715 26.789 12.4988 26.7777 10.1376C26.7777 8.87041 24.6681 0 24.6681 0C21.1103 0.806397 17.502 1.37169 13.868 1.69202C9.93464 2.07176 5.96614 1.56494 2.25443 0.208817C2.25443 0.208817 -0.639877 2.10963 0.188119 4.43523L0.188119 4.43523Z" id="path_4" />
    <path d="M4.79418 5.2848C4.79418 5.2848 5.01018 0 2.46858 0C-0.0730151 0 -1.75062 8.64 3.10938 9.72" id="path_5" />
    <clipPath id="clip_1">
      <use xlink:href="#path_1" clip-rule="evenodd" fill-rule="evenodd" />
    </clipPath>
    <clipPath id="clip_2">
      <use xlink:href="#path_2" clip-rule="evenodd" fill-rule="evenodd" />
    </clipPath>
    <clipPath id="clip_3">
      <use xlink:href="#path_3" clip-rule="evenodd" fill-rule="evenodd" />
    </clipPath>
    <clipPath id="clip_4">
      <use xlink:href="#path_4" clip-rule="evenodd" fill-rule="evenodd" />
    </clipPath>
    <clipPath id="clip_5">
      <use xlink:href="#path_5" clip-rule="evenodd" fill-rule="evenodd" />
    </clipPath>
  </defs>
  <g id="Taking notes-bro" clip-path="url(#clip_1)">
    <path d="M1327 1388L1327 1388L1327 1748L967 1748L967 1388L1327 1388Z" id="Taking-notes-bro" fill="none" stroke="none" />
    <g id="freepik--background-simple--inject-26" transform="translate(48.530216 68.24549)">
      <path d="M85.145 9.0681C74.3706 12.5364 64.0569 17.2992 54.4298 23.2521C45.8314 28.6783 37.9979 35.2308 31.1379 42.7352C-3.3214 80.4993 -11.0902 140.123 17.501 183.445C33.269 207.342 64.3802 231.829 94.5986 229.201C115.968 227.343 135.775 216.464 157.584 218.401C180.048 220.417 200.424 223.441 221.326 212.029C243.711 199.825 257.787 175.633 262.654 150.606C268.687 119.545 264.432 83.5233 250.536 55.0761C223.227 -0.788698 143.17 -10.0767 85.145 9.0681L85.145 9.0681Z" id="Shape" fill="#51C8B9" fill-rule="evenodd" stroke="none" />
      <path d="M85.145 9.0681C74.3706 12.5364 64.0569 17.2992 54.4298 23.2521C45.8314 28.6783 37.9979 35.2308 31.1379 42.7352C-3.3214 80.4993 -11.0902 140.123 17.501 183.445C33.269 207.342 64.3802 231.829 94.5986 229.201C115.968 227.343 135.775 216.464 157.584 218.401C180.048 220.417 200.424 223.441 221.326 212.029C243.711 199.825 257.787 175.633 262.654 150.606C268.687 119.545 264.432 83.5233 250.536 55.0761C223.227 -0.788698 143.17 -10.0767 85.145 9.0681L85.145 9.0681Z" id="Shape" fill="#FFFFFF" fill-opacity="0.8" fill-rule="evenodd" stroke="none" />
    </g>
    <path d="Mnan nanLnan nan" id="freepik--Floor--inject-26" fill="none" fill-rule="evenodd" stroke="#263238" stroke-width="1" stroke-linecap="round" stroke-linejoin="round" />
    <g id="freepik--Device--inject-26" transform="translate(112.91762 242.17201)">
      <path d="M54.612 42.6672L79.8408 56.7072L80.7984 65.3472L112.003 44.2224L113.378 31.932L54.612 42.6672L54.612 42.6672Z" id="Polygon" fill="#51C8B9" fill-opacity="0.28" fill-rule="evenodd" stroke="none" />
      <path d="M83.3256 52.3296L54.612 42.6672L85.4712 26.3016L113.378 31.932L83.3256 52.3296L83.3256 52.3296Z" id="Polygon" fill="#FFFFFF" fill-rule="evenodd" stroke="none" />
      <path d="M83.3256 52.3296L54.612 42.6672L85.4712 26.3016L113.378 31.932L83.3256 52.3296L83.3256 52.3296Z" id="Group" fill="#51C8B9" fill-opacity="0.15" fill-rule="evenodd" stroke="none" />
      <path d="M83.3256 52.3296L54.612 42.6672L85.4712 26.3016L113.378 31.932L83.3256 52.3296L83.3256 52.3296Z" id="Polygon" fill="none" fill-rule="evenodd" stroke="#263238" stroke-width="1" stroke-linecap="round" stroke-linejoin="round" />
      <path d="M88.9632 33.8112L80.4456 31.7448L70.6896 36.9144L79.3008 39.1824L88.9632 33.8112L88.9632 33.8112Z" id="Polygon" fill="none" fill-rule="evenodd" stroke="#263238" stroke-width="1" stroke-linecap="round" stroke-linejoin="round" />
      <path d="M94.3272 31.1328L69.372 44.5464L83.4768 49.3776L106.718 33.6096L94.3272 31.1328L94.3272 31.1328Z" id="Polygon" fill="#263238" fill-rule="evenodd" stroke="none" />
      <path d="M96.7392 14.2272L83.3256 52.3296L113.378 31.932L125.186 0L96.7392 14.2272L96.7392 14.2272Z" id="Polygon" fill="#FFFFFF" fill-rule="evenodd" stroke="none" />
      <path d="M96.7392 14.2272L83.3256 52.3296L113.378 31.932L125.186 0L96.7392 14.2272L96.7392 14.2272Z" id="Group" fill="#51C8B9" fill-opacity="0.15" fill-rule="evenodd" stroke="none" />
      <path d="M96.7392 14.2272L83.3256 52.3296L113.378 31.932L125.186 0L96.7392 14.2272L96.7392 14.2272Z" id="Polygon" fill="none" fill-rule="evenodd" stroke="#263238" stroke-width="1" stroke-linecap="round" stroke-linejoin="round" />
      <path d="M0 53.0928L18.0864 78.8904L47.0808 68.256L27.1296 45.9144L0 53.0928L0 53.0928Z" id="Polygon" fill="#FFFFFF" fill-rule="evenodd" stroke="#263238" stroke-width="1" stroke-linecap="round" stroke-linejoin="round" />
      <path d="M40.6944 46.1808L66.492 67.7232L30.852 81.8208L9.3096 54.4248L40.6944 46.1808L40.6944 46.1808Z" id="Polygon" fill="#FFFFFF" fill-rule="evenodd" stroke="#263238" stroke-width="1" stroke-linecap="round" stroke-linejoin="round" />
    </g>
    <g id="freepik--Pictures--inject-26" transform="translate(135.756 47.649597)">
      <path d="M56.2104 0L112.925 0L112.925 73.1736L56.2104 73.1736L56.2104 0Z" id="Rectangle" fill="#51C8B9" fill-rule="evenodd" stroke="none" />
      <path d="M56.2104 0L112.925 0L112.925 73.1736L56.2104 73.1736L56.2104 0Z" id="Rectangle" fill="#FFFFFF" fill-opacity="0.5" fill-rule="evenodd" stroke="none" />
      <path d="M63.7704 9.75599L105.358 9.75599L105.358 63.4176L63.7704 63.4176L63.7704 9.75599Z" id="Rectangle" fill="#FFFFFF" fill-rule="evenodd" stroke="none" />
      <path d="M130.327 48.6648L167.659 48.6648L167.659 96.84L130.327 96.84L130.327 48.6648Z" id="Rectangle" fill="#51C8B9" fill-rule="evenodd" stroke="none" />
      <path d="M130.327 48.6648L167.659 48.6648L167.659 96.84L130.327 96.84L130.327 48.6648Z" id="Rectangle" fill="#FFFFFF" fill-opacity="0.5" fill-rule="evenodd" stroke="none" />
      <path d="M135.302 55.0872L162.684 55.0872L162.684 90.4176L135.302 90.4176L135.302 55.0872Z" id="Rectangle" fill="#FFFFFF" fill-rule="evenodd" stroke="none" />
      <path d="M0 48.6648L37.332 48.6648L37.332 96.84L0 96.84L0 48.6648Z" id="Rectangle" fill="#51C8B9" fill-rule="evenodd" stroke="none" />
      <path d="M0 48.6648L37.332 48.6648L37.332 96.84L0 96.84L0 48.6648Z" id="Rectangle" fill="#FFFFFF" fill-opacity="0.5" fill-rule="evenodd" stroke="none" />
      <path d="M4.98239 55.0872L32.364 55.0872L32.364 90.4176L4.98239 90.4176L4.98239 55.0872Z" id="Rectangle" fill="#FFFFFF" fill-rule="evenodd" stroke="none" />
    </g>
    <g id="freepik--Table--inject-26" transform="translate(194.1581 148.2558)">
      <path d="M9.06192 96.5802L109.524 96.5802L109.524 99.1506L9.06192 99.1506L9.06192 96.5802Z" id="Rectangle" fill="#51C8B9" fill-opacity="0.28" fill-rule="evenodd" stroke="none" />
      <path d="M79.0315 24.8106L89.8315 24.8106L98.3203 44.697L87.5203 44.697L79.0315 24.8106L79.0315 24.8106Z" id="Polygon" fill="#263238" fill-rule="evenodd" stroke="#263238" stroke-width="1" stroke-linecap="round" stroke-linejoin="round" />
      <path d="M93.3883 19.5258L76.7779 19.5258L67.2019 44.697L83.8123 44.697L93.3883 19.5258L93.3883 19.5258Z" id="Polygon" fill="#FFFFFF" fill-rule="evenodd" stroke="#263238" stroke-width="1" stroke-linecap="round" stroke-linejoin="round" />
      <path d="M90.2419 22.5498L77.6203 22.5498L70.3483 41.673L82.9699 41.673L90.2419 22.5498L90.2419 22.5498Z" id="Polygon" fill="#FFFFFF" fill-rule="evenodd" stroke="#263238" stroke-width="1" stroke-linecap="round" stroke-linejoin="round" />
      <path d="M50.9443 4.86659C50.9443 4.86659 56.2795 2.62739 50.7643 2.48339C45.2491 2.3394 38.1716 10.209 38.6755 9.453C39.1795 8.69701 41.0083 3.297 37.6027 6.9042C34.1972 10.5114 31.8427 21.8586 31.8427 21.8586C32.2652 19.5261 32.4629 17.1585 32.4332 14.7882C32.3252 11.289 29.9852 2.44023 26.4211 1.75622C24.0884 1.30262 25.0748 4.00982 26.0323 5.94663C24.7796 3.98822 22.3099 1.05062 18.4075 0.186625C12.4028 -1.12378 8.05394 4.79462 4.36755 7.70343C0.681152 10.6122 6.00915 8.38023 10.1275 7.19222C14.2459 6.00422 14.4475 8.38022 14.4475 8.38022C14.4475 8.38022 9.06915 7.90502 9.01156 10.3818C8.95397 12.8586 20.5316 7.20661 23.5196 14.4066C26.5075 21.6066 26.8819 30.2106 26.8819 30.2106L30.6907 28.8858C31.1846 27.9381 31.5919 26.9476 31.9075 25.9266C32.2171 24.7026 36.3571 23.5146 39.5107 21.9234C42.6643 20.3322 37.7396 19.6626 38.438 19.3674C39.1364 19.0722 46.0052 19.2018 49.2379 18.4026C52.4707 17.6034 43.2836 14.6154 43.2836 14.6154C43.2836 14.6154 59.8436 17.7618 59.8436 13.6938C59.8436 9.6258 50.9443 4.86659 50.9443 4.86659L50.9443 4.86659Z" id="Shape" fill="#51C8B9" fill-rule="evenodd" stroke="none" />
      <path d="M23.2819 13.4562C19.7611 10.6914 20.2651 14.4642 20.2651 14.4642C17.6318 13.163 14.6824 12.6385 11.7619 12.9522C6.72192 13.4562 8.24111 14.4642 8.24111 14.4642C8.24111 14.4642 6.22512 13.7082 2.70431 18.237C-0.816504 22.7658 -0.312495 26.0418 0.940298 25.0338C2.19309 24.0258 10.0051 19.749 10.0051 19.749C10.0051 19.749 3.96428 24.0258 7.23309 25.2858C9.68829 26.229 14.8291 24.0618 17.2483 22.917C15.8083 23.7018 14.0875 24.9474 16.8019 25.2858C20.8267 25.7898 25.3555 31.0458 25.3555 31.0458L26.6155 28.7778C26.6155 28.7778 26.8315 16.2282 23.2819 13.4562L23.2819 13.4562Z" id="Shape" fill="#51C8B9" fill-rule="evenodd" stroke="none" />
      <path d="M33.8011 44.9202L21.1147 44.9202L19.5307 28.0578L35.3851 28.0578L33.8011 44.9202L33.8011 44.9202Z" id="Polygon" fill="#263238" fill-rule="evenodd" stroke="#263238" stroke-width="1" stroke-linecap="round" stroke-linejoin="round" />
      <path d="M13.8499 98.301L11.8411 98.301L10.8331 55.2666L14.8579 55.2666L13.8499 98.301L13.8499 98.301Z" id="Polygon" fill="#263238" fill-rule="evenodd" stroke="#263238" stroke-width="1" stroke-linecap="round" stroke-linejoin="round" />
      <path d="M106.219 98.301L104.203 98.301L103.195 55.2666L107.227 55.2666L106.219 98.301L106.219 98.301Z" id="Polygon" fill="#263238" fill-rule="evenodd" stroke="#263238" stroke-width="1" stroke-linecap="round" stroke-linejoin="round" />
      <path d="M108.731 46.2018L9.32111 46.2018L9.32111 58.5354L28.1059 58.5354L29.3299 58.7874C35.3707 60.0474 39.6475 63.8274 49.2163 63.3162C54.4507 63.0426 57.4099 61.4154 59.0299 59.9898C60.6499 61.4298 63.6091 63.0426 68.8435 63.3162C78.4051 63.8202 82.6891 60.0474 88.7299 58.7874L89.9539 58.5354L108.732 58.5354L108.731 46.2018Z" id="Shape" fill="#FFFFFF" fill-rule="evenodd" stroke="#263238" stroke-width="1" stroke-linecap="round" stroke-linejoin="round" />
      <path d="M9.32111 46.2018L108.731 46.2018L108.731 49.1106L9.32111 49.1106L9.32111 46.2018Z" id="Rectangle" fill="#263238" fill-rule="evenodd" stroke="#263238" stroke-width="1" stroke-linecap="round" stroke-linejoin="round" />
      <path d="M6.04512 44.3874L111.835 44.3874L111.835 47.0874L6.04512 47.0874L6.04512 44.3874Z" id="Rectangle" fill="#FFFFFF" fill-rule="evenodd" stroke="#263238" stroke-width="1" stroke-linecap="round" stroke-linejoin="round" />
    </g>
    <g id="freepik--Character--inject-26" transform="translate(68.76 141.10793)">
      <path d="M0 121.627C0 112.183 26.5524 104.527 59.3064 104.527C92.0604 104.527 118.613 112.183 118.613 121.627C118.613 131.071 92.0604 138.727 59.3064 138.727C26.5524 138.727 0 131.071 0 121.627Z" id="Oval" fill="#51C8B9" fill-opacity="0.28" fill-rule="evenodd" stroke="none" />
      <path d="M132.314 94.6273C132.314 94.6273 128.822 89.2561 117.821 90.6025C106.819 91.9489 83.2032 96.4921 73.8 98.1121C64.3968 99.7321 49.9248 110.172 46.7064 116.897C43.488 123.622 45.9 127.632 66.2976 128.705C86.6952 129.778 114.84 113.138 123.725 108.012C132.61 102.886 131.774 97.3057 132.314 94.6273L132.314 94.6273Z" id="Shape" fill="#263238" fill-rule="evenodd" stroke="#263238" stroke-width="1" stroke-linecap="round" stroke-linejoin="round" />
      <path d="M77.2488 19.1137C77.2488 19.1137 71.5464 30.0937 69.4368 32.2105C67.1652 34.7 63.9285 36.086 60.5592 36.0121C56.34 36.0121 41.3136 34.0105 36.2448 43.7305C31.176 53.4505 29.9304 82.2721 30.1464 83.9641C30.3624 85.6561 17.2584 96.8521 17.6832 110.604C18.108 124.356 32.6808 132.146 53.172 129.195C73.6632 126.242 78.9408 111.022 78.9408 102.151C78.9408 93.2809 83.376 88.4209 88.236 79.1113C93.096 69.8017 100.274 60.1033 97.9488 51.8593C95.6232 43.6153 86.76 39.8137 83.8008 38.7553C80.8416 37.6969 89.2944 27.9553 87.1776 23.1241C85.0608 18.2929 80.8416 16.3633 77.2488 19.1137L77.2488 19.1137Z" id="Shape" fill="#51C8B9" fill-rule="evenodd" stroke="none" />
      <path d="M76.5648 80.1481C67.572 83.4817 60.1416 80.3713 50.256 77.4841C40.3704 74.5969 44.5896 67.4905 44.5896 60.1681C44.5896 52.8457 35.9496 62.8321 35.9496 62.8321L31.1184 67.9153C30.5187 73.2445 30.199 78.6015 30.1608 83.9642C30.348 85.4762 19.9008 94.5842 17.9928 106.284C22.8464 106.849 27.7298 107.121 32.6161 107.098C52.9345 107.098 77.2057 96.665 79.5745 91.7762C81.7993 87.1754 85.4353 75.9362 85.8601 74.5898C85.6296 75.1513 84.312 77.2753 76.5648 80.1481L76.5648 80.1481Z" id="Group" fill="#51C8B9" fill-opacity="0.13" fill-rule="evenodd" stroke="none" />
      <path d="M77.2488 19.1137C77.2488 19.1137 71.5464 30.0937 69.4368 32.2105C67.1652 34.7 63.9285 36.086 60.5592 36.0121C56.34 36.0121 41.3136 34.0105 36.2448 43.7305C31.176 53.4505 29.9304 82.2721 30.1464 83.9641C30.3624 85.6561 17.2584 96.8521 17.6832 110.604C18.108 124.356 32.6808 132.146 53.172 129.195C73.6632 126.242 78.9408 111.022 78.9408 102.151C78.9408 93.2809 83.376 88.4209 88.236 79.1113C93.096 69.8017 100.274 60.1033 97.9488 51.8593C95.6232 43.6153 86.76 39.8137 83.8008 38.7553C80.8416 37.6969 89.2944 27.9553 87.1776 23.1241C85.0608 18.2929 80.8416 16.3633 77.2488 19.1137L77.2488 19.1137Z" id="Shape" fill="none" fill-rule="evenodd" stroke="#263238" stroke-width="1" stroke-linecap="round" stroke-linejoin="round" />
      <path d="M91.404 61.9969C91.404 61.9969 86.544 65.1649 86.1192 68.1169C85.6944 71.0689 86.7528 77.4121 82.7424 80.7961C78.732 84.1801 75.7728 84.1729 75.7728 84.1729" id="Shape" fill="none" fill-rule="evenodd" stroke="#263238" stroke-width="1" stroke-linecap="round" stroke-linejoin="round" />
      <path d="M39.7584 72.4585C39.7584 72.4585 39.7584 80.0761 48.8448 80.6593" id="Shape" fill="none" fill-rule="evenodd" stroke="#263238" stroke-width="1" stroke-linecap="round" stroke-linejoin="round" />
      <path d="M67.608 61.6081C68.9365 64.7454 70.0128 67.9837 70.8264 71.2921" id="Shape" fill="none" fill-rule="evenodd" stroke="#263238" stroke-width="1" stroke-linecap="round" stroke-linejoin="round" />
      <path d="M79.2504 98.3065C80.3232 91.6681 84.1248 86.9737 88.236 79.1041C88.884 77.8585 89.5824 76.6057 90.288 75.3457C86.4432 76.8505 85.8096 75.8713 85.8096 75.8713C83.988 80.1193 81.5544 81.7393 81.5544 81.7393L74.9376 99.9481L79.2504 98.3065Z" id="Shape" fill="#FFFFFF" fill-rule="evenodd" stroke="#263238" stroke-width="1" stroke-linecap="round" stroke-linejoin="round" />
      <path d="M20.1816 99.2065C18.4889 102.757 17.6341 106.649 17.6832 110.582C18.1008 124.313 32.6808 132.125 53.172 129.173C73.6632 126.221 78.9408 111 78.9408 102.13C78.9277 99.4047 79.3981 96.6988 80.3303 94.1379C41.7816 102.756 26.28 101.323 20.1816 99.2065L20.1816 99.2065Z" id="Shape" fill="#263238" fill-rule="evenodd" stroke="#263238" stroke-width="1" stroke-linecap="round" stroke-linejoin="round" />
      <path d="M64.3896 83.2873L59.112 71.7673C59.004 71.5332 58.7792 71.3745 58.5224 71.3511C58.2656 71.3276 58.0158 71.443 57.8672 71.6537C57.7185 71.8644 57.6936 72.1383 57.8017 72.3724L63.0865 83.8492L64.3896 83.2873Z" id="Shape" fill="#FFFFFF" fill-rule="evenodd" stroke="#263238" stroke-width="1" stroke-linecap="round" stroke-linejoin="round" />
      <path d="M63.0864 83.8849L64.3608 84.9361L64.3896 83.2873L63.0864 83.8849L63.0864 83.8849Z" id="Polygon" fill="none" fill-rule="evenodd" stroke="#263238" stroke-width="1" stroke-linecap="round" stroke-linejoin="round" />
      <path d="M58.1544 71.4505C57.9803 71.5304 57.8452 71.6763 57.779 71.856C57.7128 72.0357 57.7209 72.2344 57.8016 72.4081L58.3344 73.5673L59.6448 72.9697L59.112 71.8033C59.0321 71.6292 58.8862 71.4941 58.7065 71.4279C58.5268 71.3617 58.3281 71.3699 58.1544 71.4505L58.1544 71.4505Z" id="Shape" fill="#FFFFFF" fill-rule="evenodd" stroke="#263238" stroke-width="1" stroke-linecap="round" stroke-linejoin="round" />
      <path d="M56.7576 37.2793C51.1927 35.3611 45.0591 36.0597 40.068 39.1801C31.6224 44.4577 24.1128 60.1465 20.9448 65.6401C17.7768 71.1337 7.2648 94.6273 9.6768 95.1601C10.9296 95.4409 50.4216 87.9601 53.8056 87.7657C57.1896 87.5713 61.8264 85.4401 61.8264 85.4401C61.8264 85.4401 63.9432 87.7657 65.0016 86.7073C66.06 85.6489 63.0936 80.1625 61.6176 78.4705C60.1416 76.7785 58.2408 76.1449 57.1824 76.9945C56.124 77.8441 49.5792 83.9641 49.5792 83.9641L24.1632 83.0857L45.144 55.6537" id="Shape" fill="#51C8B9" fill-rule="evenodd" stroke="none" />
      <path d="M60.12 80.3713C56.8944 77.6713 54.5904 81.8905 51.984 84.0217C49.3776 86.1529 44.8848 85.9153 31.1616 85.9153C17.4384 85.9153 16.956 86.3905 15.7752 87.0961C14.5944 87.8017 18.144 77.1601 26.8992 67.2169C35.6544 57.2737 41.0976 49.0009 41.0976 42.6073C41.0976 40.5481 40.3776 39.7273 39.42 39.5977C31.2264 45.2425 24.012 60.2905 20.9232 65.6401C17.7552 71.1337 7.24322 94.6273 9.65522 95.1601C10.908 95.4409 50.4 87.9601 53.784 87.7657C57.168 87.5713 61.8048 85.4401 61.8048 85.4401C62.1072 85.7586 62.4347 86.0523 62.784 86.3185C63.1224 84.2521 62.1864 82.0921 60.12 80.3713L60.12 80.3713Z" id="Group" fill="#51C8B9" fill-opacity="0.13" fill-rule="evenodd" stroke="none" />
      <path d="M56.7576 37.2793C51.1927 35.3611 45.0591 36.0597 40.068 39.1801C31.6224 44.4577 24.1128 60.1465 20.9448 65.6401C17.7768 71.1337 7.2648 94.6273 9.6768 95.1601C10.9296 95.4409 50.4216 87.9601 53.8056 87.7657C57.1896 87.5713 61.8264 85.4401 61.8264 85.4401C61.8264 85.4401 63.9432 87.7657 65.0016 86.7073C66.06 85.6489 63.0936 80.1625 61.6176 78.4705C60.1416 76.7785 58.2408 76.1449 57.1824 76.9945C56.124 77.8441 49.5792 83.9641 49.5792 83.9641L24.1632 83.0857L45.144 55.6537" id="Shape" fill="none" fill-rule="evenodd" stroke="#263238" stroke-width="1" stroke-linecap="round" stroke-linejoin="round" />
      <path d="M61.8264 85.4401C61.8264 85.4401 63.9432 87.7657 65.0016 86.7073C66.06 85.6489 63.0936 80.1625 61.6176 78.4705C60.1416 76.7785 58.2408 76.1449 57.1824 76.9945C56.124 77.8441 49.5792 83.9641 49.5792 83.9641L24.1632 83.0857L30.5208 74.7697C26.3359 73.8098 22.4239 71.9117 19.08 69.2185C14.8968 77.7001 7.62481 94.7065 9.67682 95.1385C10.9296 95.4193 50.4216 87.9385 53.8056 87.7441C57.1896 87.5497 61.8264 85.4401 61.8264 85.4401L61.8264 85.4401Z" id="Shape" fill="#FFFFFF" fill-rule="evenodd" stroke="none" />
      <g id="Mask-Group" transform="translate(9.319438 69.21848)">
        <path d="M52.507 16.2216C52.507 16.2216 54.6238 18.5472 55.6822 17.4888C56.7406 16.4304 53.7742 10.944 52.2982 9.25201C50.8222 7.56 48.9214 6.9264 47.863 7.77601C46.8046 8.62563 40.2598 14.7456 40.2598 14.7456L14.8438 13.8672L21.2014 5.55122C17.0165 4.59136 13.1044 2.69317 9.76058 0C5.57738 8.4816 -1.69462 25.488 0.35738 25.92C1.61018 26.2008 41.1022 18.72 44.4862 18.5256C47.8702 18.3312 52.507 16.2216 52.507 16.2216L52.507 16.2216Z" id="Shape" fill="none" fill-rule="evenodd" stroke="none" />
        <g clip-path="url(#clip_2)">
          <g id="Group" transform="translate(-0.021621093 0.028784188)">
            <path d="M50.8222 11.124C47.5966 8.42401 45.2926 12.6432 42.6862 14.7744C40.0798 16.9056 35.587 16.668 21.8638 16.668C8.14058 16.668 7.65818 17.1432 6.47738 17.8488C5.48378 18.4464 7.83818 11.0016 13.8358 2.72883C12.3957 1.94748 11.0315 1.03395 9.76058 0C5.57738 8.4816 -1.69462 25.488 0.35738 25.92C1.61018 26.2008 41.1022 18.72 44.4862 18.5256C47.8702 18.3312 52.507 16.2 52.507 16.2C52.8094 16.5185 53.1368 16.8122 53.4862 17.0784C53.8246 15.0048 52.8886 12.8448 50.8222 11.124L50.8222 11.124Z" id="Shape" fill="#51C8B9" fill-rule="evenodd" stroke="none" />
            <path d="M50.8222 11.124C47.5966 8.42401 45.2926 12.6432 42.6862 14.7744C40.0798 16.9056 35.587 16.668 21.8638 16.668C8.14058 16.668 7.65818 17.1432 6.47738 17.8488C5.48378 18.4464 7.83818 11.0016 13.8358 2.72883C12.3957 1.94748 11.0315 1.03395 9.76058 0C5.57738 8.4816 -1.69462 25.488 0.35738 25.92C1.61018 26.2008 41.1022 18.72 44.4862 18.5256C47.8702 18.3312 52.507 16.2 52.507 16.2C52.8094 16.5185 53.1368 16.8122 53.4862 17.0784C53.8246 15.0048 52.8886 12.8448 50.8222 11.124L50.8222 11.124Z" id="Shape" fill="#FFFFFF" fill-opacity="0.7" fill-rule="evenodd" stroke="none" />
          </g>
        </g>
      </g>
      <path d="M61.8264 85.4401C61.8264 85.4401 63.9432 87.7657 65.0016 86.7073C66.06 85.6489 63.0936 80.1625 61.6176 78.4705C60.1416 76.7785 58.2408 76.1449 57.1824 76.9945C56.124 77.8441 49.5792 83.9641 49.5792 83.9641L24.1632 83.0857L30.5208 74.7697C26.3359 73.8098 22.4239 71.9117 19.08 69.2185C14.8968 77.7001 7.62481 94.7065 9.67682 95.1385C10.9296 95.4193 50.4216 87.9385 53.8056 87.7441C57.1896 87.5497 61.8264 85.4401 61.8264 85.4401L61.8264 85.4401Z" id="Shape" fill="none" fill-rule="evenodd" stroke="#263238" stroke-width="1" stroke-linecap="round" stroke-linejoin="round" />
      <path d="M60.5592 83.9641L43.452 101.071L70.488 104.455L85.4856 91.5673L60.5592 83.9641L60.5592 83.9641Z" id="Polygon" fill="#FFFFFF" fill-rule="evenodd" stroke="none" />
      <path d="M60.5592 83.9641L43.452 101.071L70.488 104.455L85.4856 91.5673L60.5592 83.9641L60.5592 83.9641Z" id="Group" fill="#51C8B9" fill-opacity="0.36" fill-rule="evenodd" stroke="none" />
      <path d="M60.5592 83.9641L43.452 101.071L70.488 104.455L85.4856 91.5673L60.5592 83.9641L60.5592 83.9641Z" id="Polygon" fill="none" fill-rule="evenodd" stroke="#263238" stroke-width="1" stroke-linecap="round" stroke-linejoin="round" />
      <path d="M60.1416 80.3713L60.5592 83.9641L43.452 101.071L42.6096 99.1705L60.1416 80.3713L60.1416 80.3713Z" id="Polygon" fill="#FFFFFF" fill-rule="evenodd" stroke="#263238" stroke-width="1" stroke-linecap="round" stroke-linejoin="round" />
      <path d="M60.5592 83.9641L85.4856 91.5673L86.76 89.0329L60.1416 80.3713L60.5592 83.9641L60.5592 83.9641Z" id="Polygon" fill="#FFFFFF" fill-rule="evenodd" stroke="#263238" stroke-width="1" stroke-linecap="round" stroke-linejoin="round" />
      <path d="M79.0848 98.7961C79.0848 98.7961 74.8224 99.3073 74.9376 99.9481C75.0528 100.589 78.5376 100.459 79.308 100.459C80.0784 100.459 81.324 98.6521 79.0848 98.7961L79.0848 98.7961Z" id="Shape" fill="#FFFFFF" fill-rule="evenodd" stroke="#263238" stroke-width="1" stroke-linecap="round" stroke-linejoin="round" />
      <path d="M80.5896 97.1185C80.5896 97.1185 75.2184 97.6873 75.3552 98.3929C75.492 99.0985 79.884 98.9545 80.8704 98.9545C81.8568 98.9545 83.412 96.9745 80.5896 97.1185L80.5896 97.1185Z" id="Shape" fill="#FFFFFF" fill-rule="evenodd" stroke="#263238" stroke-width="1" stroke-linecap="round" stroke-linejoin="round" />
      <path d="M82.44 95.4193C82.44 95.4193 77.0688 95.9881 77.2056 96.6937C77.3424 97.3993 81.7344 97.2625 82.7208 97.2625C83.7072 97.2625 85.2552 95.2825 82.44 95.4193L82.44 95.4193Z" id="Shape" fill="#FFFFFF" fill-rule="evenodd" stroke="#263238" stroke-width="1" stroke-linecap="round" stroke-linejoin="round" />
      <path d="M82.7064 93.7273C82.7064 93.7273 77.3352 94.2889 77.4792 95.0017C77.6232 95.7145 82.0008 95.5633 82.9872 95.5633C83.9736 95.5633 85.536 93.6121 82.7064 93.7273L82.7064 93.7273Z" id="Shape" fill="#FFFFFF" fill-rule="evenodd" stroke="#263238" stroke-width="1" stroke-linecap="round" stroke-linejoin="round" />
      <path d="M18.8352 113.412C18.8352 113.412 16.4232 107.508 23.94 102.41C31.4568 97.3129 59.5872 94.0873 66.2976 96.7729C73.008 99.4585 98.5032 120.389 98.5032 120.389L95.2776 123.607C95.2776 123.607 75.6864 124.14 67.3704 121.995C59.0544 119.849 55.8 118.812 55.8 118.812C55.8 118.812 48.8232 128.741 39.1608 129.007" id="Shape" fill="#263238" fill-rule="evenodd" stroke="#263238" stroke-width="1" stroke-linecap="round" stroke-linejoin="round" />
      <path d="M95.5512 125.486C101.213 127.776 107.176 129.231 113.256 129.806C122.918 130.613 125.87 122.83 125.87 120.446C125.87 118.063 121.846 118.567 117.821 119.1C113.796 119.633 103.867 120.173 101.448 119.906C99.0288 119.64 92.5992 120.655 95.5512 125.486L95.5512 125.486Z" id="Shape" fill="#FFFFFF" fill-rule="evenodd" stroke="#263238" stroke-width="1" stroke-linecap="round" stroke-linejoin="round" />
      <path d="M118.894 93.8209C118.894 93.8209 107.374 93.5473 101.182 99.7249C94.9896 105.903 81.324 123.067 78.1056 126.293C74.8872 129.518 62.0064 128.705 59.3208 128.453C56.6352 128.201 53.9496 126.293 50.1984 127.913C46.4472 129.533 41.6088 132.233 40.8024 135.696C39.996 139.159 39.4632 140.527 41.0688 140.794C42.6744 141.06 51.2712 139.692 55.8 139.692C60.3288 139.692 71.3664 138.886 77.8104 137.014C84.2544 135.142 102.766 124.126 110.009 119.834C117.252 115.543 130.169 107.76 132.286 100.517C134.402 93.2737 128.794 91.6609 125.575 92.1937" id="Shape" fill="#263238" fill-rule="evenodd" stroke="#263238" stroke-width="1" stroke-linecap="round" stroke-linejoin="round" />
      <path d="M81.54 124.615C81.54 124.615 97.02 101.575 104.94 97.2553C112.86 92.9353 121.5 93.6553 121.5 93.6553" id="Shape" fill="none" fill-rule="evenodd" stroke="#FFFFFF" stroke-width="1" stroke-linecap="round" stroke-linejoin="round" />
      <path d="M75.5784 127.646C70.6248 129.238 61.524 128.654 59.3208 128.438C56.6352 128.172 53.9496 126.278 50.1984 127.898C46.4472 129.518 41.6088 132.219 40.8024 135.682C39.996 139.145 39.4632 140.513 41.0688 140.779C42.6744 141.046 51.2712 139.692 55.8 139.692C60.3288 139.692 71.3664 138.886 77.8104 137.014C79.6314 136.423 81.4073 135.701 83.1241 134.854C81.2808 131.491 77.9184 129.043 75.5784 127.646L75.5784 127.646Z" id="Shape" fill="#FFFFFF" fill-rule="evenodd" stroke="#263238" stroke-width="1" stroke-linecap="round" stroke-linejoin="round" />
      <path d="M67.3704 128.438C67.3704 128.438 72.2016 130.598 73.2744 132.996C74.3472 135.394 75.1536 137.561 75.1536 138.367C75.1536 139.174 84.0096 137.028 86.6736 134.342C89.3376 131.657 82.3536 124.414 79.9632 124.414C77.5728 124.414 77.0112 125.22 74.0592 126.019C71.1072 126.818 66.8304 126.293 67.3704 128.438L67.3704 128.438Z" id="Shape" fill="#FFFFFF" fill-rule="evenodd" stroke="#263238" stroke-width="1" stroke-linecap="round" stroke-linejoin="round" />
      <path d="M55.8 118.812C55.8 118.812 49.896 115.86 49.6296 112.102" id="Shape" fill="none" fill-rule="evenodd" stroke="#FFFFFF" stroke-width="1" stroke-linecap="round" stroke-linejoin="round" />
      <path d="M44.82 127.495C49.5025 125.5 53.8686 122.832 57.78 119.575C57.78 119.575 69.3 123.175 76.86 123.175" id="Shape" fill="none" fill-rule="evenodd" stroke="#FFFFFF" stroke-width="1" stroke-linecap="round" stroke-linejoin="round" />
      <path d="M87.732 40.5049C86.4637 39.8312 85.1502 39.2466 83.8008 38.7553C80.8416 37.7041 89.2944 27.9553 87.1776 23.1241C85.0608 18.2929 80.8416 16.3633 77.2488 19.1137C77.2488 19.1137 71.5464 30.0937 69.4368 32.2105C67.1652 34.6999 63.9285 36.086 60.5592 36.0121C59.7594 36.0217 58.961 36.0819 58.1688 36.1921C57.7656 40.8721 58.0896 52.0825 69.8544 55.2361C80.9352 58.2025 85.6728 49.0585 87.732 40.5049L87.732 40.5049Z" id="Shape" fill="#FFFFFF" fill-rule="evenodd" stroke="none" />
      <g id="Mask-Group" transform="translate(58.071575 17.851995)">
        <path d="M29.6604 22.6529C28.3922 21.9792 27.0786 21.3946 25.7292 20.9033C22.77 19.8521 31.2228 10.1033 29.106 5.27208C26.9892 0.440881 22.77 -1.48872 19.1772 1.26167C19.1772 1.26167 13.4748 12.2417 11.3652 14.3585C9.09364 16.8479 5.85688 18.234 2.48761 18.1601C1.68782 18.1698 0.889431 18.2299 0.097218 18.3401C-0.30598 23.0201 0.0180176 34.2305 11.7828 37.3841C22.8636 40.3505 27.6012 31.2065 29.6604 22.6529L29.6604 22.6529Z" id="Shape" fill="none" fill-rule="evenodd" stroke="none" />
        <g clip-path="url(#clip_3)">
          <g id="Group" transform="translate(0.0036035161 0.020698246)">
            <path d="M19.1736 1.24098C19.1736 1.24098 13.4712 12.221 11.3616 14.3378C9.09004 16.8273 5.85327 18.2133 2.484 18.1394C1.6842 18.1491 0.885817 18.2092 0.0936035 18.3194C0.0431982 18.9098 0.00720703 19.6082 0 20.3858C1.1808 23.4458 3.456 27.4346 7.4232 28.3058C14.0472 29.7458 18.7776 24.9938 19.728 23.3378C20.5776 21.8402 24.336 6.62659 23.328 0.038584C21.8376 -0.137889 20.3393 0.295785 19.1736 1.24098L19.1736 1.24098Z" id="Shape" fill="#51C8B9" fill-rule="evenodd" stroke="none" />
            <path d="M19.1736 1.24098C19.1736 1.24098 13.4712 12.221 11.3616 14.3378C9.09004 16.8273 5.85327 18.2133 2.484 18.1394C1.6842 18.1491 0.885817 18.2092 0.0936035 18.3194C0.0431982 18.9098 0.00720703 19.6082 0 20.3858C1.1808 23.4458 3.456 27.4346 7.4232 28.3058C14.0472 29.7458 18.7776 24.9938 19.728 23.3378C20.5776 21.8402 24.336 6.62659 23.328 0.038584C21.8376 -0.137889 20.3393 0.295785 19.1736 1.24098L19.1736 1.24098Z" id="Shape" fill="#FFFFFF" fill-opacity="0.7" fill-rule="evenodd" stroke="none" />
          </g>
        </g>
      </g>
      <path d="M87.732 40.5049C86.4637 39.8312 85.1502 39.2466 83.8008 38.7553C80.8416 37.7041 89.2944 27.9553 87.1776 23.1241C85.0608 18.2929 80.8416 16.3633 77.2488 19.1137C77.2488 19.1137 71.5464 30.0937 69.4368 32.2105C67.1652 34.6999 63.9285 36.086 60.5592 36.0121C59.7594 36.0217 58.961 36.0819 58.1688 36.1921C57.7656 40.8721 58.0896 52.0825 69.8544 55.2361C80.9352 58.2025 85.6728 49.0585 87.732 40.5049L87.732 40.5049Z" id="Shape" fill="none" fill-rule="evenodd" stroke="#263238" stroke-width="1" stroke-linecap="round" stroke-linejoin="round" />
      <path d="M77.112 42.8161C77.112 42.8161 74.5056 44.0401 73.656 47.8561" id="Shape" fill="none" fill-rule="evenodd" stroke="#263238" stroke-width="1" stroke-linecap="round" stroke-linejoin="round" />
      <path d="M83.5848 6.01686C83.5848 6.01686 84.852 1.79046 81.9 0.314462C78.948 -1.16154 67.536 3.26647 65.0016 10.6609C62.4672 18.0553 73.2384 21.0145 79.1496 16.7881C85.0608 12.5616 84.0096 6.85926 84.0096 6.85926L83.5848 6.01686Z" id="Shape" fill="#263238" fill-rule="evenodd" stroke="#263238" stroke-width="1" stroke-linecap="round" stroke-linejoin="round" />
      <path d="M65.0016 10.6609C65.0016 10.6609 62.6184 17.0545 67.0176 20.2801C71.4168 23.5057 77.8608 17.3497 77.8608 17.3497" id="Shape" fill="none" fill-rule="evenodd" stroke="#263238" stroke-width="1" stroke-linecap="round" stroke-linejoin="round" />
      <path d="M77.4648 26.2921C77.4648 26.2921 72.6048 21.0145 75.96 11.5321C79.3152 2.04968 88.2 -0.49912 98.7984 0.0768714C112.118 0.796872 113.35 14.7001 112.932 18.0769C112.668 20.149 112.245 22.1975 111.665 24.2041C111.665 24.2041 116.942 30.7489 113.983 34.7665C111.024 38.7841 100.678 36.8761 96.66 31.3825C92.6424 25.8889 80.6112 27.5809 79.9776 28.0057C79.344 28.4305 77.4648 26.2921 77.4648 26.2921L77.4648 26.2921Z" id="Shape" fill="#263238" fill-rule="evenodd" stroke="#263238" stroke-width="1" stroke-linecap="round" stroke-linejoin="round" />
      <path d="M104.94 35.1913C104.336 34.9389 103.796 34.5524 103.363 34.0609" id="Shape" fill="none" fill-rule="evenodd" stroke="#FFFFFF" stroke-width="1" stroke-linecap="round" stroke-linejoin="round" />
      <path d="M101.88 23.5057C101.88 23.5057 112.133 31.7137 108.914 34.3489C108.606 34.6025 108.273 34.8244 107.921 35.0113" id="Shape" fill="none" fill-rule="evenodd" stroke="#FFFFFF" stroke-width="1" stroke-linecap="round" stroke-linejoin="round" />
      <path d="M100.44 21.1585C103.875 21.0686 107.285 21.7707 110.405 23.2105" id="Shape" fill="none" fill-rule="evenodd" stroke="#FFFFFF" stroke-width="1" stroke-linecap="round" stroke-linejoin="round" />
      <path d="M100.433 17.3497L98.0856 6.21128" id="Line" fill="none" fill-rule="evenodd" stroke="#FFFFFF" stroke-width="1" stroke-linecap="round" stroke-linejoin="round" />
      <path d="M80.352 17.2345C79.956 17.0977 79.56 16.9465 79.1496 16.7881" id="Shape" fill="none" fill-rule="evenodd" stroke="#FFFFFF" stroke-width="1" stroke-linecap="round" stroke-linejoin="round" />
      <path d="M99.5544 15.8881C99.5544 15.8881 93.7944 20.2945 84.0744 18.2713" id="Shape" fill="none" fill-rule="evenodd" stroke="#FFFFFF" stroke-width="1" stroke-linecap="round" stroke-linejoin="round" />
      <path d="M98.3808 11.4889C98.3808 11.4889 94.8672 13.2457 89.0208 13.2457" id="Shape" fill="none" fill-rule="evenodd" stroke="#FFFFFF" stroke-width="1" stroke-linecap="round" stroke-linejoin="round" />
      <path d="M75.348 26.7169C75.348 26.7169 74.7144 32.6281 75.7728 36.6457C76.8312 40.6633 77.04 46.9993 80.8128 47.6329C84.5856 48.2665 97.0776 41.2897 99.4032 38.7553C101.04 37.0532 101.949 34.7805 101.938 32.4192C101.938 31.152 99.828 22.2816 99.828 22.2816C96.2702 23.088 92.6619 23.6533 89.0279 23.9737C85.0945 24.3534 81.126 23.8466 77.4143 22.4905C77.4143 22.4905 74.52 24.3913 75.348 26.7169L75.348 26.7169Z" id="Shape" fill="#FFFFFF" fill-rule="evenodd" stroke="none" />
      <g id="Mask-Group" transform="translate(75.15988 22.281641)">
        <path d="M0.188119 4.43523C0.188119 4.43523 -0.445485 10.3464 0.612916 14.364C1.67132 18.3816 1.88011 24.7176 5.65292 25.3512C9.42572 25.9848 21.9177 19.008 24.2433 16.4736C25.8799 14.7715 26.789 12.4988 26.7777 10.1376C26.7777 8.87041 24.6681 0 24.6681 0C21.1103 0.806397 17.502 1.37169 13.868 1.69202C9.93464 2.07176 5.96614 1.56494 2.25443 0.208817C2.25443 0.208817 -0.639877 2.10963 0.188119 4.43523L0.188119 4.43523Z" id="Shape" fill="none" fill-rule="evenodd" stroke="none" />
        <g clip-path="url(#clip_4)">
          <g id="Group" transform="translate(0 0.20882817)">
            <path d="M2.30492 0C2.30492 0 -0.65428 1.9008 0.188119 4.2264C0.188119 4.2264 -0.445485 10.1376 0.612916 14.1552C1.47691 17.4312 1.77212 22.2552 3.92492 24.2352C2.14652 20.34 1.23212 10.8936 5.71772 6.83281C10.6857 2.34 22.9977 0.208806 22.9977 0.208806L22.9977 0.136802C21.1761 0.503998 18.0081 1.0584 13.9401 1.4544C10.0017 1.84663 6.02556 1.3496 2.30492 1.09863e-05L2.30492 0Z" id="Shape" fill="#51C8B9" fill-rule="evenodd" stroke="none" />
            <path d="M2.30492 0C2.30492 0 -0.65428 1.9008 0.188119 4.2264C0.188119 4.2264 -0.445485 10.1376 0.612916 14.1552C1.47691 17.4312 1.77212 22.2552 3.92492 24.2352C2.14652 20.34 1.23212 10.8936 5.71772 6.83281C10.6857 2.34 22.9977 0.208806 22.9977 0.208806L22.9977 0.136802C21.1761 0.503998 18.0081 1.0584 13.9401 1.4544C10.0017 1.84663 6.02556 1.3496 2.30492 1.09863e-05L2.30492 0Z" id="Shape" fill="#FFFFFF" fill-opacity="0.7" fill-rule="evenodd" stroke="none" />
          </g>
        </g>
      </g>
      <path d="M75.348 26.7169C75.348 26.7169 74.7144 32.6281 75.7728 36.6457C76.8312 40.6633 77.04 46.9993 80.8128 47.6329C84.5856 48.2665 97.0776 41.2897 99.4032 38.7553C101.04 37.0532 101.949 34.7805 101.938 32.4192C101.938 31.152 99.828 22.2816 99.828 22.2816C96.2702 23.088 92.6619 23.6533 89.0279 23.9737C85.0945 24.3534 81.126 23.8466 77.4143 22.4905C77.4143 22.4905 74.52 24.3913 75.348 26.7169L75.348 26.7169Z" id="Shape" fill="none" fill-rule="evenodd" stroke="#263238" stroke-width="1" stroke-linecap="round" stroke-linejoin="round" />
      <path d="M77.8824 24.6073C77.8824 24.6073 78.0984 19.3225 75.5568 19.3225C73.0152 19.3225 71.3376 27.9625 76.1976 29.0425" id="Shape" fill="#FFFFFF" fill-rule="evenodd" stroke="none" />
      <g id="Mask-Group" transform="translate(73.08821 19.322495)">
        <path d="M4.79418 5.2848C4.79418 5.2848 5.01018 0 2.46858 0C-0.0730151 0 -1.75062 8.64 3.10938 9.72" id="Shape" fill="none" fill-rule="evenodd" stroke="none" />
        <g clip-path="url(#clip_5)">
          <g id="Group">
            <path d="M4.79418 5.2848C4.79418 5.2848 5.01018 0 2.46858 0C-0.0730151 0 -1.75062 8.64 3.10938 9.72" id="Shape" fill="#51C8B9" fill-rule="evenodd" stroke="none" />
            <path d="M4.79418 5.2848C4.79418 5.2848 5.01018 0 2.46858 0C-0.0730151 0 -1.75062 8.64 3.10938 9.72" id="Shape" fill="#FFFFFF" fill-opacity="0.7" fill-rule="evenodd" stroke="none" />
          </g>
        </g>
      </g>
      <path d="M77.8824 24.6073C77.8824 24.6073 78.0984 19.3225 75.5568 19.3225C73.0152 19.3225 71.3376 27.9625 76.1976 29.0425" id="Shape" fill="none" fill-rule="evenodd" stroke="#263238" stroke-width="1" stroke-linecap="round" stroke-linejoin="round" />
      <path d="M93.96 33.9025C93.96 33.9025 88.92 41.9233 87.8328 41.9233C86.7456 41.9233 86.1408 40.2385 86.1408 40.2385" id="Shape" fill="none" fill-rule="evenodd" stroke="#263238" stroke-width="1" stroke-linecap="round" stroke-linejoin="round" />
      <path d="M84.4344 30.7273C84.6322 32.6705 86.2829 34.14 88.236 34.1113" id="Shape" fill="none" fill-rule="evenodd" stroke="#263238" stroke-width="1" stroke-linecap="round" stroke-linejoin="round" />
      <path d="M93.5136 37.2793C93.5136 37.2793 93.7296 40.0225 97.3152 39.1801" id="Shape" fill="none" fill-rule="evenodd" stroke="#263238" stroke-width="1" stroke-linecap="round" stroke-linejoin="round" />
      <path d="M92.0376 31.1521C92.0376 31.1521 90.5616 27.3505 87.1776 27.1417" id="Shape" fill="none" fill-rule="evenodd" stroke="#263238" stroke-width="1.5" stroke-linecap="round" stroke-linejoin="round" />
      <path d="M99.432 35.5873C97.9488 33.0529 94.9968 33.6865 94.9968 33.6865" id="Shape" fill="none" fill-rule="evenodd" stroke="#263238" stroke-width="1.5" stroke-linecap="round" stroke-linejoin="round" />
      <path d="M81.9144 41.1457C82.0221 42.2905 82.873 43.2265 84.0024 43.4425" id="Shape" fill="none" fill-rule="evenodd" stroke="#263238" stroke-width="1" stroke-linecap="round" stroke-linejoin="round" />
      <path d="M96.9192 44.0257C96.9192 44.0257 97.5024 47.2441 101.016 40.8001C104.53 34.3561 99.8568 22.2817 99.8568 22.2817" id="Shape" fill="none" fill-rule="evenodd" stroke="#263238" stroke-width="1" stroke-linecap="round" stroke-linejoin="round" />
      <path d="M85.8456 74.6185C85.8889 74.5768 85.9225 74.5334 85.9456 74.4889L85.8456 74.6185Z" id="Shape" fill="#51C8B9" fill-opacity="0.13" fill-rule="evenodd" stroke="none" />
    </g>
  </g>
</svg>